<?xml version="1.0" standalone="no"?>
<!DOCTYPE svg PUBLIC "-//W3C//DTD SVG 20010904//EN"
 "http://www.w3.org/TR/2001/REC-SVG-20010904/DTD/svg10.dtd">
<svg version="1.0" xmlns="http://www.w3.org/2000/svg"
 width="700.000000pt" height="700.000000pt" viewBox="0 0 700.000000 700.000000"
 preserveAspectRatio="xMidYMid meet">
<metadata>
Created by potrace 1.11, written by Peter Selinger 2001-2013
</metadata>
<g transform="translate(0.000000,700.000000) scale(0.100000,-0.100000)"
fill="#000000" stroke="none">
<path d="M1385 5323 c-258 -8 -517 -35 -672 -69 l-73 -15 0 -1785 0 -1784 250
0 250 0 0 675 0 675 313 0 c317 0 448 7 637 36 535 80 865 297 1013 664 91
228 101 593 22 835 -53 161 -128 279 -257 401 -227 214 -574 333 -1063 364
-150 9 -223 10 -420 3z m590 -457 c233 -37 384 -104 500 -221 124 -124 175
-258 175 -462 0 -223 -51 -366 -174 -488 -159 -159 -380 -225 -816 -246 -118
-5 -282 -9 -365 -7 l-150 3 -3 712 -2 713 22 5 c84 19 676 12 813 -9z"/>
<path d="M4480 5324 c-305 -20 -476 -40 -620 -72 l-35 -8 -3 -1787 -2 -1787
250 0 250 0 0 670 0 670 218 0 c604 1 966 56 1247 191 387 185 575 504 575
975 0 245 -56 454 -163 614 -185 275 -524 450 -997 515 -110 15 -587 28 -720
19z m620 -455 c314 -37 520 -142 635 -323 87 -139 115 -326 80 -532 -43 -249
-196 -408 -473 -494 -153 -48 -294 -62 -669 -67 l-353 -5 0 711 c0 670 1 711
18 712 227 18 603 17 762 -2z"/>
</g>
</svg>
