<svg xmlns="http://www.w3.org/2000/svg" width="85.799" height="80.933" viewBox="0 0 85.799 80.933"><g transform="translate(0 -14.519)"><g transform="translate(0.001 14.519)"><path d="M84.058,76.536,53.716,20.677a12.583,12.583,0,0,0-21.638,0c-.017.029-.032.059-.049.088L1.787,76.448a12.578,12.578,0,0,0,10.817,19H73.022a12.713,12.713,0,0,0,11.1-6.359A12.4,12.4,0,0,0,84.058,76.536ZM37.864,40.1a5.032,5.032,0,0,1,10.065,0V60.225a5.032,5.032,0,1,1-10.065,0V40.1ZM42.9,85.387a7.549,7.549,0,1,1,7.548-7.549A7.557,7.557,0,0,1,42.9,85.387Z" transform="translate(-0.001 -14.519)" fill="#ffd53b"/></g></g></svg>