<svg xmlns="http://www.w3.org/2000/svg" xmlns:xlink="http://www.w3.org/1999/xlink" width="402.729" height="299.204" viewBox="0 0 402.729 299.204"><defs><filter id="a" x="0" y="0" width="402.729" height="299.204" filterUnits="userSpaceOnUse"><feOffset input="SourceAlpha"/><feGaussianBlur stdDeviation="24.5" result="b"/><feFlood flood-color="#372b7b" flood-opacity="0.078"/><feComposite operator="in" in2="b"/><feComposite in="SourceGraphic"/></filter></defs><g transform="translate(-888.967 -1285.239)"><g transform="matrix(1, 0, 0, 1, 888.97, 1285.24)" filter="url(#a)"><path d="M114.845,50.763,0,0H86.9l33.593,25.67L255.729,89.54V152.2Z" transform="translate(73.5 73.5)" fill="#a5c85b"/></g><g transform="translate(1027.283 1298.762) rotate(30)"><path d="M63.237,1.381C47.739,19.171-.142,99.691-.142,99.691l41.551,8.476L71.544-.1Z" transform="translate(25.171 61.659)" fill="#a5c85b" fill-rule="evenodd"/><path d="M8.308,1.406C23.874,19.048,72.071,99.1,72.071,99.1l-41.523,8.88L0,0Z" transform="translate(96.81 61.557)" fill="#a5c85b" fill-rule="evenodd"/><path d="M2.527,0C.966,3.8-.53,6.371.164,8.748,6.088,29.1,86.819,28.342,101.487,20.178,126.442,6.293,2.527,0,2.527,0Z" transform="translate(0.077 44.091)" fill="#7a9b34" fill-rule="evenodd"/><path d="M96.264,54.219C50.6,22.158,31.63,4.956,23.248.44c-11.861-6.4-30.275,54.6-20.611,54.07L94.484,67.957Z" transform="translate(0.151 0.501)" fill="#a5c85b" fill-rule="evenodd"/><path d="M84.964-.121c1.31,3.785,2.563,6.344,2,8.73C82.11,29.043,14.977,28.982,2.748,20.936-18.048,7.258,84.964-.121,84.964-.121Z" transform="translate(104.858 43.32)" fill="#7a9b34" fill-rule="evenodd"/><path d="M-.078,54.859C45.464,22.368,64.364,4.979,72.729.38c11.836-6.5,30.482,54.311,20.824,53.874L1.756,68.582Z" transform="translate(96.511 -0.138)" fill="#a5c85b" fill-rule="evenodd"/><path d="M15.489-.022A15.543,15.543,0,1,1-.022,15.592,15.49,15.49,0,0,1,15.489-.022Z" transform="translate(80.915 44.08)" fill="#a5c85b" fill-rule="evenodd"/></g></g></svg>