<svg xmlns="http://www.w3.org/2000/svg" width="904.208" height="914.836" viewBox="0 0 904.208 914.836"><g transform="translate(-110.599 -794)"><g transform="translate(-1041 466)"><g transform="translate(1151.598 328)"><rect width="3.815" height="3.815" fill="#fff"/><rect width="3.815" height="3.815" transform="translate(16.587)" fill="#fff"/><rect width="3.815" height="3.815" transform="translate(33.174)" fill="#fff"/><rect width="3.815" height="3.815" transform="translate(49.761)" fill="#fff"/><rect width="3.815" height="3.815" transform="translate(66.348)" fill="#fff"/><rect width="3.815" height="3.815" transform="translate(82.935)" fill="#fff"/><rect width="3.815" height="3.815" transform="translate(99.522)" fill="#fff"/><rect width="3.815" height="3.815" transform="translate(116.11)" fill="#fff"/><rect width="3.815" height="3.815" transform="translate(132.697)" fill="#fff"/><rect width="3.815" height="3.815" transform="translate(149.284)" fill="#fff"/><rect width="3.815" height="3.815" transform="translate(165.871)" fill="#fff"/><rect width="3.815" height="3.815" transform="translate(182.458)" fill="#fff"/><rect width="3.815" height="3.815" transform="translate(199.045)" fill="#fff"/><rect width="3.815" height="3.815" transform="translate(215.632)" fill="#fff"/><rect width="3.815" height="3.815" transform="translate(232.219)" fill="#fff"/><rect width="3.815" height="3.815" transform="translate(248.806)" fill="#fff"/><rect width="3.815" height="3.815" transform="translate(265.393)" fill="#fff"/><rect width="3.815" height="3.815" transform="translate(0 15.592)" fill="#fff"/><rect width="3.815" height="3.815" transform="translate(16.587 15.592)" fill="#fff"/><rect width="3.815" height="3.815" transform="translate(33.174 15.592)" fill="#fff"/><rect width="3.815" height="3.815" transform="translate(49.761 15.592)" fill="#fff"/><rect width="3.815" height="3.815" transform="translate(66.348 15.592)" fill="#fff"/><rect width="3.815" height="3.815" transform="translate(82.935 15.592)" fill="#fff"/><rect width="3.815" height="3.815" transform="translate(99.522 15.592)" fill="#fff"/><rect width="3.815" height="3.815" transform="translate(116.11 15.592)" fill="#fff"/><rect width="3.815" height="3.815" transform="translate(132.697 15.592)" fill="#fff"/><rect width="3.815" height="3.815" transform="translate(149.284 15.592)" fill="#fff"/><rect width="3.815" height="3.815" transform="translate(165.871 15.592)" fill="#fff"/><rect width="3.815" height="3.815" transform="translate(182.458 15.592)" fill="#fff"/><rect width="3.815" height="3.815" transform="translate(199.045 15.592)" fill="#fff"/><rect width="3.815" height="3.815" transform="translate(215.632 15.592)" fill="#fff"/><rect width="3.815" height="3.815" transform="translate(232.219 15.592)" fill="#fff"/><rect width="3.815" height="3.815" transform="translate(248.806 15.592)" fill="#fff"/><rect width="3.815" height="3.815" transform="translate(265.393 15.592)" fill="#fff"/><rect width="3.815" height="3.815" transform="translate(0 31.184)" fill="#fff"/><rect width="3.815" height="3.815" transform="translate(16.587 31.184)" fill="#fff"/><rect width="3.815" height="3.815" transform="translate(33.174 31.184)" fill="#fff"/><rect width="3.815" height="3.815" transform="translate(49.761 31.184)" fill="#fff"/><rect width="3.815" height="3.815" transform="translate(66.348 31.184)" fill="#fff"/><rect width="3.815" height="3.815" transform="translate(82.935 31.184)" fill="#fff"/><rect width="3.815" height="3.815" transform="translate(99.522 31.184)" fill="#fff"/><rect width="3.815" height="3.815" transform="translate(116.11 31.184)" fill="#fff"/><rect width="3.815" height="3.815" transform="translate(132.697 31.184)" fill="#fff"/><rect width="3.815" height="3.815" transform="translate(149.284 31.184)" fill="#fff"/><rect width="3.815" height="3.815" transform="translate(165.871 31.184)" fill="#fff"/><rect width="3.815" height="3.815" transform="translate(182.458 31.184)" fill="#fff"/><rect width="3.815" height="3.815" transform="translate(199.045 31.184)" fill="#fff"/><rect width="3.815" height="3.815" transform="translate(215.632 31.184)" fill="#fff"/><rect width="3.815" height="3.815" transform="translate(232.219 31.184)" fill="#fff"/><rect width="3.815" height="3.815" transform="translate(248.806 31.184)" fill="#fff"/><rect width="3.815" height="3.815" transform="translate(265.393 31.184)" fill="#fff"/><rect width="3.815" height="3.815" transform="translate(0 46.776)" fill="#fff"/><rect width="3.815" height="3.815" transform="translate(16.587 46.776)" fill="#fff"/><rect width="3.815" height="3.815" transform="translate(33.174 46.776)" fill="#fff"/><rect width="3.815" height="3.815" transform="translate(49.761 46.776)" fill="#fff"/><rect width="3.815" height="3.815" transform="translate(66.348 46.776)" fill="#fff"/><rect width="3.815" height="3.815" transform="translate(82.935 46.776)" fill="#fff"/><rect width="3.815" height="3.815" transform="translate(99.522 46.776)" fill="#fff"/><rect width="3.815" height="3.815" transform="translate(116.11 46.776)" fill="#fff"/><rect width="3.815" height="3.815" transform="translate(132.697 46.776)" fill="#fff"/><rect width="3.815" height="3.815" transform="translate(149.284 46.776)" fill="#fff"/><rect width="3.815" height="3.815" transform="translate(165.871 46.776)" fill="#fff"/><rect width="3.815" height="3.815" transform="translate(182.458 46.776)" fill="#fff"/><rect width="3.815" height="3.815" transform="translate(199.045 46.776)" fill="#fff"/><rect width="3.815" height="3.815" transform="translate(215.632 46.776)" fill="#fff"/><rect width="3.815" height="3.815" transform="translate(232.219 46.776)" fill="#fff"/><rect width="3.815" height="3.815" transform="translate(248.806 46.776)" fill="#fff"/><rect width="3.815" height="3.815" transform="translate(265.393 46.776)" fill="#fff"/><rect width="3.815" height="3.815" transform="translate(0 62.367)" fill="#fff"/><rect width="3.815" height="3.815" transform="translate(16.587 62.367)" fill="#fff"/><rect width="3.815" height="3.815" transform="translate(33.174 62.367)" fill="#fff"/><rect width="3.815" height="3.815" transform="translate(49.761 62.367)" fill="#fff"/><rect width="3.815" height="3.815" transform="translate(66.348 62.367)" fill="#fff"/><rect width="3.815" height="3.815" transform="translate(82.935 62.367)" fill="#fff"/><rect width="3.815" height="3.815" transform="translate(99.522 62.367)" fill="#fff"/><rect width="3.815" height="3.815" transform="translate(116.11 62.367)" fill="#fff"/><rect width="3.815" height="3.815" transform="translate(132.697 62.367)" fill="#fff"/><rect width="3.815" height="3.815" transform="translate(149.284 62.367)" fill="#fff"/><rect width="3.815" height="3.815" transform="translate(165.871 62.367)" fill="#fff"/><rect width="3.815" height="3.815" transform="translate(182.458 62.367)" fill="#fff"/><rect width="3.815" height="3.815" transform="translate(199.045 62.367)" fill="#fff"/><rect width="3.815" height="3.815" transform="translate(215.632 62.367)" fill="#fff"/><rect width="3.815" height="3.815" transform="translate(232.219 62.367)" fill="#fff"/><rect width="3.815" height="3.815" transform="translate(248.806 62.367)" fill="#fff"/><rect width="3.815" height="3.815" transform="translate(265.393 62.367)" fill="#fff"/><rect width="3.815" height="3.815" transform="translate(0 77.959)" fill="#fff"/><rect width="3.815" height="3.815" transform="translate(16.587 77.959)" fill="#fff"/><rect width="3.815" height="3.815" transform="translate(33.174 77.959)" fill="#fff"/><rect width="3.815" height="3.815" transform="translate(49.761 77.959)" fill="#fff"/><rect width="3.815" height="3.815" transform="translate(66.348 77.959)" fill="#fff"/><rect width="3.815" height="3.815" transform="translate(82.935 77.959)" fill="#fff"/><rect width="3.815" height="3.815" transform="translate(99.522 77.959)" fill="#fff"/><rect width="3.815" height="3.815" transform="translate(116.11 77.959)" fill="#fff"/><rect width="3.815" height="3.815" transform="translate(132.697 77.959)" fill="#fff"/><rect width="3.815" height="3.815" transform="translate(149.284 77.959)" fill="#fff"/><rect width="3.815" height="3.815" transform="translate(165.871 77.959)" fill="#fff"/><rect width="3.815" height="3.815" transform="translate(182.458 77.959)" fill="#fff"/><rect width="3.815" height="3.815" transform="translate(199.045 77.959)" fill="#fff"/><rect width="3.815" height="3.815" transform="translate(215.632 77.959)" fill="#fff"/><rect width="3.815" height="3.815" transform="translate(232.219 77.959)" fill="#fff"/><rect width="3.815" height="3.815" transform="translate(248.806 77.959)" fill="#fff"/><rect width="3.815" height="3.815" transform="translate(265.393 77.959)" fill="#fff"/><rect width="3.815" height="3.815" transform="translate(0 93.551)" fill="#fff"/><rect width="3.815" height="3.815" transform="translate(16.587 93.551)" fill="#fff"/><rect width="3.815" height="3.815" transform="translate(33.174 93.551)" fill="#fff"/><rect width="3.815" height="3.815" transform="translate(49.761 93.551)" fill="#fff"/><rect width="3.815" height="3.815" transform="translate(66.348 93.551)" fill="#fff"/><rect width="3.815" height="3.815" transform="translate(82.935 93.551)" fill="#fff"/><rect width="3.815" height="3.815" transform="translate(99.522 93.551)" fill="#fff"/><rect width="3.815" height="3.815" transform="translate(116.11 93.551)" fill="#fff"/><rect width="3.815" height="3.815" transform="translate(132.697 93.551)" fill="#fff"/><rect width="3.815" height="3.815" transform="translate(149.284 93.551)" fill="#fff"/><rect width="3.815" height="3.815" transform="translate(165.871 93.551)" fill="#fff"/><rect width="3.815" height="3.815" transform="translate(182.458 93.551)" fill="#fff"/><rect width="3.815" height="3.815" transform="translate(199.045 93.551)" fill="#fff"/><rect width="3.815" height="3.815" transform="translate(215.632 93.551)" fill="#fff"/><rect width="3.815" height="3.815" transform="translate(232.219 93.551)" fill="#fff"/><rect width="3.815" height="3.815" transform="translate(248.806 93.551)" fill="#fff"/><rect width="3.815" height="3.815" transform="translate(265.393 93.551)" fill="#fff"/><rect width="3.815" height="3.815" transform="translate(0 109.143)" fill="#fff"/><rect width="3.815" height="3.815" transform="translate(16.587 109.143)" fill="#fff"/><rect width="3.815" height="3.815" transform="translate(33.174 109.143)" fill="#fff"/><rect width="3.815" height="3.815" transform="translate(49.761 109.143)" fill="#fff"/><rect width="3.815" height="3.815" transform="translate(66.348 109.143)" fill="#fff"/><rect width="3.815" height="3.815" transform="translate(82.935 109.143)" fill="#fff"/><rect width="3.815" height="3.815" transform="translate(99.522 109.143)" fill="#fff"/><rect width="3.815" height="3.815" transform="translate(116.11 109.143)" fill="#fff"/><rect width="3.815" height="3.815" transform="translate(132.697 109.143)" fill="#fff"/><rect width="3.815" height="3.815" transform="translate(149.284 109.143)" fill="#fff"/><rect width="3.815" height="3.815" transform="translate(165.871 109.143)" fill="#fff"/><rect width="3.815" height="3.815" transform="translate(182.458 109.143)" fill="#fff"/><rect width="3.815" height="3.815" transform="translate(199.045 109.143)" fill="#fff"/><rect width="3.815" height="3.815" transform="translate(215.632 109.143)" fill="#fff"/><rect width="3.815" height="3.815" transform="translate(232.219 109.143)" fill="#fff"/><rect width="3.815" height="3.815" transform="translate(248.806 109.143)" fill="#fff"/><rect width="3.815" height="3.815" transform="translate(265.393 109.143)" fill="#fff"/><rect width="3.815" height="3.815" transform="translate(0 124.735)" fill="#fff"/><rect width="3.815" height="3.815" transform="translate(16.587 124.735)" fill="#fff"/><rect width="3.815" height="3.815" transform="translate(33.174 124.735)" fill="#fff"/><rect width="3.815" height="3.815" transform="translate(49.761 124.735)" fill="#fff"/><rect width="3.815" height="3.815" transform="translate(66.348 124.735)" fill="#fff"/><rect width="3.815" height="3.815" transform="translate(82.935 124.735)" fill="#fff"/><rect width="3.815" height="3.815" transform="translate(99.522 124.735)" fill="#fff"/><rect width="3.815" height="3.815" transform="translate(116.11 124.735)" fill="#fff"/><rect width="3.815" height="3.815" transform="translate(132.697 124.735)" fill="#fff"/><rect width="3.815" height="3.815" transform="translate(149.284 124.735)" fill="#fff"/><rect width="3.815" height="3.815" transform="translate(165.871 124.735)" fill="#fff"/><rect width="3.815" height="3.815" transform="translate(182.458 124.735)" fill="#fff"/><rect width="3.815" height="3.815" transform="translate(199.045 124.735)" fill="#fff"/><rect width="3.815" height="3.815" transform="translate(215.632 124.735)" fill="#fff"/><rect width="3.815" height="3.815" transform="translate(232.219 124.735)" fill="#fff"/><rect width="3.815" height="3.815" transform="translate(248.806 124.735)" fill="#fff"/><rect width="3.815" height="3.815" transform="translate(265.393 124.735)" fill="#fff"/><rect width="3.815" height="3.815" transform="translate(0 140.327)" fill="#fff"/><rect width="3.815" height="3.815" transform="translate(16.587 140.327)" fill="#fff"/><rect width="3.815" height="3.815" transform="translate(33.174 140.327)" fill="#fff"/><rect width="3.815" height="3.815" transform="translate(49.761 140.327)" fill="#fff"/><rect width="3.815" height="3.815" transform="translate(66.348 140.327)" fill="#fff"/><rect width="3.815" height="3.815" transform="translate(82.935 140.327)" fill="#fff"/><rect width="3.815" height="3.815" transform="translate(99.522 140.327)" fill="#fff"/><rect width="3.815" height="3.815" transform="translate(116.11 140.327)" fill="#fff"/><rect width="3.815" height="3.815" transform="translate(132.697 140.327)" fill="#fff"/><rect width="3.815" height="3.815" transform="translate(149.284 140.327)" fill="#fff"/><rect width="3.815" height="3.815" transform="translate(165.871 140.327)" fill="#fff"/><rect width="3.815" height="3.815" transform="translate(182.458 140.327)" fill="#fff"/><rect width="3.815" height="3.815" transform="translate(199.045 140.327)" fill="#fff"/><rect width="3.815" height="3.815" transform="translate(215.632 140.327)" fill="#fff"/><rect width="3.815" height="3.815" transform="translate(232.219 140.327)" fill="#fff"/><rect width="3.815" height="3.815" transform="translate(248.806 140.327)" fill="#fff"/><rect width="3.815" height="3.815" transform="translate(265.393 140.327)" fill="#fff"/><rect width="3.815" height="3.815" transform="translate(0 155.918)" fill="#fff"/><rect width="3.815" height="3.815" transform="translate(16.587 155.918)" fill="#fff"/><rect width="3.815" height="3.815" transform="translate(33.174 155.918)" fill="#fff"/><rect width="3.815" height="3.815" transform="translate(49.761 155.918)" fill="#fff"/><rect width="3.815" height="3.815" transform="translate(66.348 155.918)" fill="#fff"/><rect width="3.815" height="3.815" transform="translate(82.935 155.918)" fill="#fff"/><rect width="3.815" height="3.815" transform="translate(99.522 155.918)" fill="#fff"/><rect width="3.815" height="3.815" transform="translate(116.11 155.918)" fill="#fff"/><rect width="3.815" height="3.815" transform="translate(132.697 155.918)" fill="#fff"/><rect width="3.815" height="3.815" transform="translate(149.284 155.918)" fill="#fff"/><rect width="3.815" height="3.815" transform="translate(165.871 155.918)" fill="#fff"/><rect width="3.815" height="3.815" transform="translate(182.458 155.918)" fill="#fff"/><rect width="3.815" height="3.815" transform="translate(199.045 155.918)" fill="#fff"/><rect width="3.815" height="3.815" transform="translate(215.632 155.918)" fill="#fff"/><rect width="3.815" height="3.815" transform="translate(232.219 155.918)" fill="#fff"/><rect width="3.815" height="3.815" transform="translate(248.806 155.918)" fill="#fff"/><rect width="3.815" height="3.815" transform="translate(265.393 155.918)" fill="#fff"/><rect width="3.815" height="3.815" transform="translate(0 171.51)" fill="#fff"/><rect width="3.815" height="3.815" transform="translate(16.587 171.51)" fill="#fff"/><rect width="3.815" height="3.815" transform="translate(33.174 171.51)" fill="#fff"/><rect width="3.815" height="3.815" transform="translate(49.761 171.51)" fill="#fff"/><rect width="3.815" height="3.815" transform="translate(66.348 171.51)" fill="#fff"/><rect width="3.815" height="3.815" transform="translate(82.935 171.51)" fill="#fff"/><rect width="3.815" height="3.815" transform="translate(99.522 171.51)" fill="#fff"/><rect width="3.815" height="3.815" transform="translate(116.11 171.51)" fill="#fff"/><rect width="3.815" height="3.815" transform="translate(132.697 171.51)" fill="#fff"/><rect width="3.815" height="3.815" transform="translate(149.284 171.51)" fill="#fff"/><rect width="3.815" height="3.815" transform="translate(165.871 171.51)" fill="#fff"/><rect width="3.815" height="3.815" transform="translate(182.458 171.51)" fill="#fff"/><rect width="3.815" height="3.815" transform="translate(199.045 171.51)" fill="#fff"/><rect width="3.815" height="3.815" transform="translate(215.632 171.51)" fill="#fff"/><rect width="3.815" height="3.815" transform="translate(232.219 171.51)" fill="#fff"/><rect width="3.815" height="3.815" transform="translate(248.806 171.51)" fill="#fff"/><rect width="3.815" height="3.815" transform="translate(265.393 171.51)" fill="#fff"/><rect width="3.815" height="3.815" transform="translate(0 187.102)" fill="#fff"/><rect width="3.815" height="3.815" transform="translate(16.587 187.102)" fill="#fff"/><rect width="3.815" height="3.815" transform="translate(33.174 187.102)" fill="#fff"/><rect width="3.815" height="3.815" transform="translate(49.761 187.102)" fill="#fff"/><rect width="3.815" height="3.815" transform="translate(66.348 187.102)" fill="#fff"/><rect width="3.815" height="3.815" transform="translate(82.935 187.102)" fill="#fff"/><rect width="3.815" height="3.815" transform="translate(99.522 187.102)" fill="#fff"/><rect width="3.815" height="3.815" transform="translate(116.11 187.102)" fill="#fff"/><rect width="3.815" height="3.815" transform="translate(132.697 187.102)" fill="#fff"/><rect width="3.815" height="3.815" transform="translate(149.284 187.102)" fill="#fff"/><rect width="3.815" height="3.815" transform="translate(165.871 187.102)" fill="#fff"/><rect width="3.815" height="3.815" transform="translate(182.458 187.102)" fill="#fff"/><rect width="3.815" height="3.815" transform="translate(199.045 187.102)" fill="#fff"/><rect width="3.815" height="3.815" transform="translate(215.632 187.102)" fill="#fff"/><rect width="3.815" height="3.815" transform="translate(232.219 187.102)" fill="#fff"/><rect width="3.815" height="3.815" transform="translate(248.806 187.102)" fill="#fff"/><rect width="3.815" height="3.815" transform="translate(265.393 187.102)" fill="#fff"/><rect width="3.815" height="3.815" transform="translate(0 202.694)" fill="#fff"/><rect width="3.815" height="3.815" transform="translate(16.587 202.694)" fill="#fff"/><rect width="3.815" height="3.815" transform="translate(33.174 202.694)" fill="#fff"/><rect width="3.815" height="3.815" transform="translate(49.761 202.694)" fill="#fff"/><rect width="3.815" height="3.815" transform="translate(66.348 202.694)" fill="#fff"/><rect width="3.815" height="3.815" transform="translate(82.935 202.694)" fill="#fff"/><rect width="3.815" height="3.815" transform="translate(99.522 202.694)" fill="#fff"/><rect width="3.815" height="3.815" transform="translate(116.11 202.694)" fill="#fff"/><rect width="3.815" height="3.815" transform="translate(132.697 202.694)" fill="#fff"/><rect width="3.815" height="3.815" transform="translate(149.284 202.694)" fill="#fff"/><rect width="3.815" height="3.815" transform="translate(165.871 202.694)" fill="#fff"/><rect width="3.815" height="3.815" transform="translate(182.458 202.694)" fill="#fff"/><rect width="3.815" height="3.815" transform="translate(199.045 202.694)" fill="#fff"/><rect width="3.815" height="3.815" transform="translate(215.632 202.694)" fill="#fff"/><rect width="3.815" height="3.815" transform="translate(232.219 202.694)" fill="#fff"/><rect width="3.815" height="3.815" transform="translate(248.806 202.694)" fill="#fff"/><rect width="3.815" height="3.815" transform="translate(265.393 202.694)" fill="#fff"/><rect width="3.815" height="3.815" transform="translate(0 218.286)" fill="#fff"/><rect width="3.815" height="3.815" transform="translate(16.587 218.286)" fill="#fff"/><rect width="3.815" height="3.815" transform="translate(33.174 218.286)" fill="#fff"/><rect width="3.815" height="3.815" transform="translate(49.761 218.286)" fill="#fff"/><rect width="3.815" height="3.815" transform="translate(66.348 218.286)" fill="#fff"/><rect width="3.815" height="3.815" transform="translate(82.935 218.286)" fill="#fff"/><rect width="3.815" height="3.815" transform="translate(99.522 218.286)" fill="#fff"/><rect width="3.815" height="3.815" transform="translate(116.11 218.286)" fill="#fff"/><rect width="3.815" height="3.815" transform="translate(132.697 218.286)" fill="#fff"/><rect width="3.815" height="3.815" transform="translate(149.284 218.286)" fill="#fff"/><rect width="3.815" height="3.815" transform="translate(165.871 218.286)" fill="#fff"/><rect width="3.815" height="3.815" transform="translate(182.458 218.286)" fill="#fff"/><rect width="3.815" height="3.815" transform="translate(199.045 218.286)" fill="#fff"/><rect width="3.815" height="3.815" transform="translate(215.632 218.286)" fill="#fff"/><rect width="3.815" height="3.815" transform="translate(232.219 218.286)" fill="#fff"/><rect width="3.815" height="3.815" transform="translate(248.806 218.286)" fill="#fff"/><rect width="3.815" height="3.815" transform="translate(265.393 218.286)" fill="#fff"/><rect width="3.815" height="3.815" transform="translate(0 233.878)" fill="#fff"/><rect width="3.815" height="3.815" transform="translate(16.587 233.878)" fill="#fff"/><rect width="3.815" height="3.815" transform="translate(33.174 233.878)" fill="#fff"/><rect width="3.815" height="3.815" transform="translate(49.761 233.878)" fill="#fff"/><rect width="3.815" height="3.815" transform="translate(66.348 233.878)" fill="#fff"/><rect width="3.815" height="3.815" transform="translate(82.935 233.878)" fill="#fff"/><rect width="3.815" height="3.815" transform="translate(99.522 233.878)" fill="#fff"/><rect width="3.815" height="3.815" transform="translate(116.11 233.878)" fill="#fff"/><rect width="3.815" height="3.815" transform="translate(132.697 233.878)" fill="#fff"/><rect width="3.815" height="3.815" transform="translate(149.284 233.878)" fill="#fff"/><rect width="3.815" height="3.815" transform="translate(165.871 233.878)" fill="#fff"/><rect width="3.815" height="3.815" transform="translate(182.458 233.878)" fill="#fff"/><rect width="3.815" height="3.815" transform="translate(199.045 233.878)" fill="#fff"/><rect width="3.815" height="3.815" transform="translate(215.632 233.878)" fill="#fff"/><rect width="3.815" height="3.815" transform="translate(232.219 233.878)" fill="#fff"/><rect width="3.815" height="3.815" transform="translate(248.806 233.878)" fill="#fff"/><rect width="3.815" height="3.815" transform="translate(265.393 233.878)" fill="#fff"/><rect width="3.815" height="3.815" transform="translate(0 249.47)" fill="#fff"/><rect width="3.815" height="3.815" transform="translate(16.587 249.47)" fill="#fff"/><rect width="3.815" height="3.815" transform="translate(33.174 249.47)" fill="#fff"/><rect width="3.815" height="3.815" transform="translate(49.761 249.47)" fill="#fff"/><rect width="3.815" height="3.815" transform="translate(66.348 249.47)" fill="#fff"/><rect width="3.815" height="3.815" transform="translate(82.935 249.47)" fill="#fff"/><rect width="3.815" height="3.815" transform="translate(99.522 249.47)" fill="#fff"/><rect width="3.815" height="3.815" transform="translate(116.11 249.47)" fill="#fff"/><rect width="3.815" height="3.815" transform="translate(132.697 249.47)" fill="#fff"/><rect width="3.815" height="3.815" transform="translate(149.284 249.47)" fill="#fff"/><rect width="3.815" height="3.815" transform="translate(165.871 249.47)" fill="#fff"/><rect width="3.815" height="3.815" transform="translate(182.458 249.47)" fill="#fff"/><rect width="3.815" height="3.815" transform="translate(199.045 249.47)" fill="#fff"/><rect width="3.815" height="3.815" transform="translate(215.632 249.47)" fill="#fff"/><rect width="3.815" height="3.815" transform="translate(232.219 249.47)" fill="#fff"/><rect width="3.815" height="3.815" transform="translate(248.806 249.47)" fill="#fff"/><rect width="3.815" height="3.815" transform="translate(265.393 249.47)" fill="#fff"/><rect width="3.815" height="3.815" transform="translate(0 265.061)" fill="#fff"/><rect width="3.815" height="3.815" transform="translate(16.587 265.061)" fill="#fff"/><rect width="3.815" height="3.815" transform="translate(33.174 265.061)" fill="#fff"/><rect width="3.815" height="3.815" transform="translate(49.761 265.061)" fill="#fff"/><rect width="3.815" height="3.815" transform="translate(66.348 265.061)" fill="#fff"/><rect width="3.815" height="3.815" transform="translate(82.935 265.061)" fill="#fff"/><rect width="3.815" height="3.815" transform="translate(99.522 265.061)" fill="#fff"/><rect width="3.815" height="3.815" transform="translate(116.11 265.061)" fill="#fff"/><rect width="3.815" height="3.815" transform="translate(132.697 265.061)" fill="#fff"/><rect width="3.815" height="3.815" transform="translate(149.284 265.061)" fill="#fff"/><rect width="3.815" height="3.815" transform="translate(165.871 265.061)" fill="#fff"/><rect width="3.815" height="3.815" transform="translate(182.458 265.061)" fill="#fff"/><rect width="3.815" height="3.815" transform="translate(199.045 265.061)" fill="#fff"/><rect width="3.815" height="3.815" transform="translate(215.632 265.061)" fill="#fff"/><rect width="3.815" height="3.815" transform="translate(232.219 265.061)" fill="#fff"/><rect width="3.815" height="3.815" transform="translate(248.806 265.061)" fill="#fff"/><rect width="3.815" height="3.815" transform="translate(265.393 265.061)" fill="#fff"/><rect width="3.815" height="3.815" transform="translate(0 280.653)" fill="#fff"/><rect width="3.815" height="3.815" transform="translate(16.587 280.653)" fill="#fff"/><rect width="3.815" height="3.815" transform="translate(33.174 280.653)" fill="#fff"/><rect width="3.815" height="3.815" transform="translate(49.761 280.653)" fill="#fff"/><rect width="3.815" height="3.815" transform="translate(66.348 280.653)" fill="#fff"/><rect width="3.815" height="3.815" transform="translate(82.935 280.653)" fill="#fff"/><rect width="3.815" height="3.815" transform="translate(99.522 280.653)" fill="#fff"/><rect width="3.815" height="3.815" transform="translate(116.11 280.653)" fill="#fff"/><rect width="3.815" height="3.815" transform="translate(132.697 280.653)" fill="#fff"/><rect width="3.815" height="3.815" transform="translate(149.284 280.653)" fill="#fff"/><rect width="3.815" height="3.815" transform="translate(165.871 280.653)" fill="#fff"/><rect width="3.815" height="3.815" transform="translate(182.458 280.653)" fill="#fff"/><rect width="3.815" height="3.815" transform="translate(199.045 280.653)" fill="#fff"/><rect width="3.815" height="3.815" transform="translate(215.632 280.653)" fill="#fff"/><rect width="3.815" height="3.815" transform="translate(232.219 280.653)" fill="#fff"/><rect width="3.815" height="3.815" transform="translate(248.806 280.653)" fill="#fff"/><rect width="3.815" height="3.815" transform="translate(265.393 280.653)" fill="#fff"/><rect width="3.815" height="3.815" transform="translate(0 296.245)" fill="#fff"/><rect width="3.815" height="3.815" transform="translate(16.587 296.245)" fill="#fff"/><rect width="3.815" height="3.815" transform="translate(33.174 296.245)" fill="#fff"/><rect width="3.815" height="3.815" transform="translate(49.761 296.245)" fill="#fff"/><rect width="3.815" height="3.815" transform="translate(66.348 296.245)" fill="#fff"/><rect width="3.815" height="3.815" transform="translate(82.935 296.245)" fill="#fff"/><rect width="3.815" height="3.815" transform="translate(99.522 296.245)" fill="#fff"/><rect width="3.815" height="3.815" transform="translate(116.11 296.245)" fill="#fff"/><rect width="3.815" height="3.815" transform="translate(132.697 296.245)" fill="#fff"/><rect width="3.815" height="3.815" transform="translate(149.284 296.245)" fill="#fff"/><rect width="3.815" height="3.815" transform="translate(165.871 296.245)" fill="#fff"/><rect width="3.815" height="3.815" transform="translate(182.458 296.245)" fill="#fff"/><rect width="3.815" height="3.815" transform="translate(199.045 296.245)" fill="#fff"/><rect width="3.815" height="3.815" transform="translate(215.632 296.245)" fill="#fff"/><rect width="3.815" height="3.815" transform="translate(232.219 296.245)" fill="#fff"/><rect width="3.815" height="3.815" transform="translate(248.806 296.245)" fill="#fff"/><rect width="3.815" height="3.815" transform="translate(265.393 296.245)" fill="#fff"/><rect width="3.815" height="3.815" transform="translate(0 311.837)" fill="#fff"/><rect width="3.815" height="3.815" transform="translate(16.587 311.837)" fill="#fff"/><rect width="3.815" height="3.815" transform="translate(33.174 311.837)" fill="#fff"/><rect width="3.815" height="3.815" transform="translate(49.761 311.837)" fill="#fff"/><rect width="3.815" height="3.815" transform="translate(66.348 311.837)" fill="#fff"/><rect width="3.815" height="3.815" transform="translate(82.935 311.837)" fill="#fff"/><rect width="3.815" height="3.815" transform="translate(99.522 311.837)" fill="#fff"/><rect width="3.815" height="3.815" transform="translate(116.11 311.837)" fill="#fff"/><rect width="3.815" height="3.815" transform="translate(132.697 311.837)" fill="#fff"/><rect width="3.815" height="3.815" transform="translate(149.284 311.837)" fill="#fff"/><rect width="3.815" height="3.815" transform="translate(165.871 311.837)" fill="#fff"/><rect width="3.815" height="3.815" transform="translate(182.458 311.837)" fill="#fff"/><rect width="3.815" height="3.815" transform="translate(199.045 311.837)" fill="#fff"/><rect width="3.815" height="3.815" transform="translate(215.632 311.837)" fill="#fff"/><rect width="3.815" height="3.815" transform="translate(232.219 311.837)" fill="#fff"/><rect width="3.815" height="3.815" transform="translate(248.806 311.837)" fill="#fff"/><rect width="3.815" height="3.815" transform="translate(265.393 311.837)" fill="#fff"/><rect width="3.815" height="3.815" transform="translate(0 327.429)" fill="#fff"/><rect width="3.815" height="3.815" transform="translate(16.587 327.429)" fill="#fff"/><rect width="3.815" height="3.815" transform="translate(33.174 327.429)" fill="#fff"/><rect width="3.815" height="3.815" transform="translate(49.761 327.429)" fill="#fff"/><rect width="3.815" height="3.815" transform="translate(66.348 327.429)" fill="#fff"/><rect width="3.815" height="3.815" transform="translate(82.935 327.429)" fill="#fff"/><rect width="3.815" height="3.815" transform="translate(99.522 327.429)" fill="#fff"/><rect width="3.815" height="3.815" transform="translate(116.11 327.429)" fill="#fff"/><rect width="3.815" height="3.815" transform="translate(132.697 327.429)" fill="#fff"/><rect width="3.815" height="3.815" transform="translate(149.284 327.429)" fill="#fff"/><rect width="3.815" height="3.815" transform="translate(165.871 327.429)" fill="#fff"/><rect width="3.815" height="3.815" transform="translate(182.458 327.429)" fill="#fff"/><rect width="3.815" height="3.815" transform="translate(199.045 327.429)" fill="#fff"/><rect width="3.815" height="3.815" transform="translate(215.632 327.429)" fill="#fff"/><rect width="3.815" height="3.815" transform="translate(232.219 327.429)" fill="#fff"/><rect width="3.815" height="3.815" transform="translate(248.806 327.429)" fill="#fff"/><rect width="3.815" height="3.815" transform="translate(265.393 327.429)" fill="#fff"/><rect width="3.815" height="3.815" transform="translate(0 343.021)" fill="#fff"/><rect width="3.815" height="3.815" transform="translate(16.587 343.021)" fill="#fff"/><rect width="3.815" height="3.815" transform="translate(33.174 343.021)" fill="#fff"/><rect width="3.815" height="3.815" transform="translate(49.761 343.021)" fill="#fff"/><rect width="3.815" height="3.815" transform="translate(66.348 343.021)" fill="#fff"/><rect width="3.815" height="3.815" transform="translate(82.935 343.021)" fill="#fff"/><rect width="3.815" height="3.815" transform="translate(99.522 343.021)" fill="#fff"/><rect width="3.815" height="3.815" transform="translate(116.11 343.021)" fill="#fff"/><rect width="3.815" height="3.815" transform="translate(132.697 343.021)" fill="#fff"/><rect width="3.815" height="3.815" transform="translate(149.284 343.021)" fill="#fff"/><rect width="3.815" height="3.815" transform="translate(165.871 343.021)" fill="#fff"/><rect width="3.815" height="3.815" transform="translate(182.458 343.021)" fill="#fff"/><rect width="3.815" height="3.815" transform="translate(199.045 343.021)" fill="#fff"/><rect width="3.815" height="3.815" transform="translate(215.632 343.021)" fill="#fff"/><rect width="3.815" height="3.815" transform="translate(232.219 343.021)" fill="#fff"/><rect width="3.815" height="3.815" transform="translate(248.806 343.021)" fill="#fff"/><rect width="3.815" height="3.815" transform="translate(265.393 343.021)" fill="#fff"/></g></g><g transform="translate(-406 1034)"><g transform="translate(1151.598 328)"><rect width="3.815" height="3.815" fill="#fff"/><rect width="3.815" height="3.815" transform="translate(16.587)" fill="#fff"/><rect width="3.815" height="3.815" transform="translate(33.174)" fill="#fff"/><rect width="3.815" height="3.815" transform="translate(49.761)" fill="#fff"/><rect width="3.815" height="3.815" transform="translate(66.348)" fill="#fff"/><rect width="3.815" height="3.815" transform="translate(82.935)" fill="#fff"/><rect width="3.815" height="3.815" transform="translate(99.522)" fill="#fff"/><rect width="3.815" height="3.815" transform="translate(116.11)" fill="#fff"/><rect width="3.815" height="3.815" transform="translate(132.697)" fill="#fff"/><rect width="3.815" height="3.815" transform="translate(149.284)" fill="#fff"/><rect width="3.815" height="3.815" transform="translate(165.871)" fill="#fff"/><rect width="3.815" height="3.815" transform="translate(182.458)" fill="#fff"/><rect width="3.815" height="3.815" transform="translate(199.045)" fill="#fff"/><rect width="3.815" height="3.815" transform="translate(215.632)" fill="#fff"/><rect width="3.815" height="3.815" transform="translate(232.219)" fill="#fff"/><rect width="3.815" height="3.815" transform="translate(248.806)" fill="#fff"/><rect width="3.815" height="3.815" transform="translate(265.393)" fill="#fff"/><rect width="3.815" height="3.815" transform="translate(0 15.592)" fill="#fff"/><rect width="3.815" height="3.815" transform="translate(16.587 15.592)" fill="#fff"/><rect width="3.815" height="3.815" transform="translate(33.174 15.592)" fill="#fff"/><rect width="3.815" height="3.815" transform="translate(49.761 15.592)" fill="#fff"/><rect width="3.815" height="3.815" transform="translate(66.348 15.592)" fill="#fff"/><rect width="3.815" height="3.815" transform="translate(82.935 15.592)" fill="#fff"/><rect width="3.815" height="3.815" transform="translate(99.522 15.592)" fill="#fff"/><rect width="3.815" height="3.815" transform="translate(116.11 15.592)" fill="#fff"/><rect width="3.815" height="3.815" transform="translate(132.697 15.592)" fill="#fff"/><rect width="3.815" height="3.815" transform="translate(149.284 15.592)" fill="#fff"/><rect width="3.815" height="3.815" transform="translate(165.871 15.592)" fill="#fff"/><rect width="3.815" height="3.815" transform="translate(182.458 15.592)" fill="#fff"/><rect width="3.815" height="3.815" transform="translate(199.045 15.592)" fill="#fff"/><rect width="3.815" height="3.815" transform="translate(215.632 15.592)" fill="#fff"/><rect width="3.815" height="3.815" transform="translate(232.219 15.592)" fill="#fff"/><rect width="3.815" height="3.815" transform="translate(248.806 15.592)" fill="#fff"/><rect width="3.815" height="3.815" transform="translate(265.393 15.592)" fill="#fff"/><rect width="3.815" height="3.815" transform="translate(0 31.184)" fill="#fff"/><rect width="3.815" height="3.815" transform="translate(16.587 31.184)" fill="#fff"/><rect width="3.815" height="3.815" transform="translate(33.174 31.184)" fill="#fff"/><rect width="3.815" height="3.815" transform="translate(49.761 31.184)" fill="#fff"/><rect width="3.815" height="3.815" transform="translate(66.348 31.184)" fill="#fff"/><rect width="3.815" height="3.815" transform="translate(82.935 31.184)" fill="#fff"/><rect width="3.815" height="3.815" transform="translate(99.522 31.184)" fill="#fff"/><rect width="3.815" height="3.815" transform="translate(116.11 31.184)" fill="#fff"/><rect width="3.815" height="3.815" transform="translate(132.697 31.184)" fill="#fff"/><rect width="3.815" height="3.815" transform="translate(149.284 31.184)" fill="#fff"/><rect width="3.815" height="3.815" transform="translate(165.871 31.184)" fill="#fff"/><rect width="3.815" height="3.815" transform="translate(182.458 31.184)" fill="#fff"/><rect width="3.815" height="3.815" transform="translate(199.045 31.184)" fill="#fff"/><rect width="3.815" height="3.815" transform="translate(215.632 31.184)" fill="#fff"/><rect width="3.815" height="3.815" transform="translate(232.219 31.184)" fill="#fff"/><rect width="3.815" height="3.815" transform="translate(248.806 31.184)" fill="#fff"/><rect width="3.815" height="3.815" transform="translate(265.393 31.184)" fill="#fff"/><rect width="3.815" height="3.815" transform="translate(0 46.776)" fill="#fff"/><rect width="3.815" height="3.815" transform="translate(16.587 46.776)" fill="#fff"/><rect width="3.815" height="3.815" transform="translate(33.174 46.776)" fill="#fff"/><rect width="3.815" height="3.815" transform="translate(49.761 46.776)" fill="#fff"/><rect width="3.815" height="3.815" transform="translate(66.348 46.776)" fill="#fff"/><rect width="3.815" height="3.815" transform="translate(82.935 46.776)" fill="#fff"/><rect width="3.815" height="3.815" transform="translate(99.522 46.776)" fill="#fff"/><rect width="3.815" height="3.815" transform="translate(116.11 46.776)" fill="#fff"/><rect width="3.815" height="3.815" transform="translate(132.697 46.776)" fill="#fff"/><rect width="3.815" height="3.815" transform="translate(149.284 46.776)" fill="#fff"/><rect width="3.815" height="3.815" transform="translate(165.871 46.776)" fill="#fff"/><rect width="3.815" height="3.815" transform="translate(182.458 46.776)" fill="#fff"/><rect width="3.815" height="3.815" transform="translate(199.045 46.776)" fill="#fff"/><rect width="3.815" height="3.815" transform="translate(215.632 46.776)" fill="#fff"/><rect width="3.815" height="3.815" transform="translate(232.219 46.776)" fill="#fff"/><rect width="3.815" height="3.815" transform="translate(248.806 46.776)" fill="#fff"/><rect width="3.815" height="3.815" transform="translate(265.393 46.776)" fill="#fff"/><rect width="3.815" height="3.815" transform="translate(0 62.367)" fill="#fff"/><rect width="3.815" height="3.815" transform="translate(16.587 62.367)" fill="#fff"/><rect width="3.815" height="3.815" transform="translate(33.174 62.367)" fill="#fff"/><rect width="3.815" height="3.815" transform="translate(49.761 62.367)" fill="#fff"/><rect width="3.815" height="3.815" transform="translate(66.348 62.367)" fill="#fff"/><rect width="3.815" height="3.815" transform="translate(82.935 62.367)" fill="#fff"/><rect width="3.815" height="3.815" transform="translate(99.522 62.367)" fill="#fff"/><rect width="3.815" height="3.815" transform="translate(116.11 62.367)" fill="#fff"/><rect width="3.815" height="3.815" transform="translate(132.697 62.367)" fill="#fff"/><rect width="3.815" height="3.815" transform="translate(149.284 62.367)" fill="#fff"/><rect width="3.815" height="3.815" transform="translate(165.871 62.367)" fill="#fff"/><rect width="3.815" height="3.815" transform="translate(182.458 62.367)" fill="#fff"/><rect width="3.815" height="3.815" transform="translate(199.045 62.367)" fill="#fff"/><rect width="3.815" height="3.815" transform="translate(215.632 62.367)" fill="#fff"/><rect width="3.815" height="3.815" transform="translate(232.219 62.367)" fill="#fff"/><rect width="3.815" height="3.815" transform="translate(248.806 62.367)" fill="#fff"/><rect width="3.815" height="3.815" transform="translate(265.393 62.367)" fill="#fff"/><rect width="3.815" height="3.815" transform="translate(0 77.959)" fill="#fff"/><rect width="3.815" height="3.815" transform="translate(16.587 77.959)" fill="#fff"/><rect width="3.815" height="3.815" transform="translate(33.174 77.959)" fill="#fff"/><rect width="3.815" height="3.815" transform="translate(49.761 77.959)" fill="#fff"/><rect width="3.815" height="3.815" transform="translate(66.348 77.959)" fill="#fff"/><rect width="3.815" height="3.815" transform="translate(82.935 77.959)" fill="#fff"/><rect width="3.815" height="3.815" transform="translate(99.522 77.959)" fill="#fff"/><rect width="3.815" height="3.815" transform="translate(116.11 77.959)" fill="#fff"/><rect width="3.815" height="3.815" transform="translate(132.697 77.959)" fill="#fff"/><rect width="3.815" height="3.815" transform="translate(149.284 77.959)" fill="#fff"/><rect width="3.815" height="3.815" transform="translate(165.871 77.959)" fill="#fff"/><rect width="3.815" height="3.815" transform="translate(182.458 77.959)" fill="#fff"/><rect width="3.815" height="3.815" transform="translate(199.045 77.959)" fill="#fff"/><rect width="3.815" height="3.815" transform="translate(215.632 77.959)" fill="#fff"/><rect width="3.815" height="3.815" transform="translate(232.219 77.959)" fill="#fff"/><rect width="3.815" height="3.815" transform="translate(248.806 77.959)" fill="#fff"/><rect width="3.815" height="3.815" transform="translate(265.393 77.959)" fill="#fff"/><rect width="3.815" height="3.815" transform="translate(0 93.551)" fill="#fff"/><rect width="3.815" height="3.815" transform="translate(16.587 93.551)" fill="#fff"/><rect width="3.815" height="3.815" transform="translate(33.174 93.551)" fill="#fff"/><rect width="3.815" height="3.815" transform="translate(49.761 93.551)" fill="#fff"/><rect width="3.815" height="3.815" transform="translate(66.348 93.551)" fill="#fff"/><rect width="3.815" height="3.815" transform="translate(82.935 93.551)" fill="#fff"/><rect width="3.815" height="3.815" transform="translate(99.522 93.551)" fill="#fff"/><rect width="3.815" height="3.815" transform="translate(116.11 93.551)" fill="#fff"/><rect width="3.815" height="3.815" transform="translate(132.697 93.551)" fill="#fff"/><rect width="3.815" height="3.815" transform="translate(149.284 93.551)" fill="#fff"/><rect width="3.815" height="3.815" transform="translate(165.871 93.551)" fill="#fff"/><rect width="3.815" height="3.815" transform="translate(182.458 93.551)" fill="#fff"/><rect width="3.815" height="3.815" transform="translate(199.045 93.551)" fill="#fff"/><rect width="3.815" height="3.815" transform="translate(215.632 93.551)" fill="#fff"/><rect width="3.815" height="3.815" transform="translate(232.219 93.551)" fill="#fff"/><rect width="3.815" height="3.815" transform="translate(248.806 93.551)" fill="#fff"/><rect width="3.815" height="3.815" transform="translate(265.393 93.551)" fill="#fff"/><rect width="3.815" height="3.815" transform="translate(0 109.143)" fill="#fff"/><rect width="3.815" height="3.815" transform="translate(16.587 109.143)" fill="#fff"/><rect width="3.815" height="3.815" transform="translate(33.174 109.143)" fill="#fff"/><rect width="3.815" height="3.815" transform="translate(49.761 109.143)" fill="#fff"/><rect width="3.815" height="3.815" transform="translate(66.348 109.143)" fill="#fff"/><rect width="3.815" height="3.815" transform="translate(82.935 109.143)" fill="#fff"/><rect width="3.815" height="3.815" transform="translate(99.522 109.143)" fill="#fff"/><rect width="3.815" height="3.815" transform="translate(116.11 109.143)" fill="#fff"/><rect width="3.815" height="3.815" transform="translate(132.697 109.143)" fill="#fff"/><rect width="3.815" height="3.815" transform="translate(149.284 109.143)" fill="#fff"/><rect width="3.815" height="3.815" transform="translate(165.871 109.143)" fill="#fff"/><rect width="3.815" height="3.815" transform="translate(182.458 109.143)" fill="#fff"/><rect width="3.815" height="3.815" transform="translate(199.045 109.143)" fill="#fff"/><rect width="3.815" height="3.815" transform="translate(215.632 109.143)" fill="#fff"/><rect width="3.815" height="3.815" transform="translate(232.219 109.143)" fill="#fff"/><rect width="3.815" height="3.815" transform="translate(248.806 109.143)" fill="#fff"/><rect width="3.815" height="3.815" transform="translate(265.393 109.143)" fill="#fff"/><rect width="3.815" height="3.815" transform="translate(0 124.735)" fill="#fff"/><rect width="3.815" height="3.815" transform="translate(16.587 124.735)" fill="#fff"/><rect width="3.815" height="3.815" transform="translate(33.174 124.735)" fill="#fff"/><rect width="3.815" height="3.815" transform="translate(49.761 124.735)" fill="#fff"/><rect width="3.815" height="3.815" transform="translate(66.348 124.735)" fill="#fff"/><rect width="3.815" height="3.815" transform="translate(82.935 124.735)" fill="#fff"/><rect width="3.815" height="3.815" transform="translate(99.522 124.735)" fill="#fff"/><rect width="3.815" height="3.815" transform="translate(116.11 124.735)" fill="#fff"/><rect width="3.815" height="3.815" transform="translate(132.697 124.735)" fill="#fff"/><rect width="3.815" height="3.815" transform="translate(149.284 124.735)" fill="#fff"/><rect width="3.815" height="3.815" transform="translate(165.871 124.735)" fill="#fff"/><rect width="3.815" height="3.815" transform="translate(182.458 124.735)" fill="#fff"/><rect width="3.815" height="3.815" transform="translate(199.045 124.735)" fill="#fff"/><rect width="3.815" height="3.815" transform="translate(215.632 124.735)" fill="#fff"/><rect width="3.815" height="3.815" transform="translate(232.219 124.735)" fill="#fff"/><rect width="3.815" height="3.815" transform="translate(248.806 124.735)" fill="#fff"/><rect width="3.815" height="3.815" transform="translate(265.393 124.735)" fill="#fff"/><rect width="3.815" height="3.815" transform="translate(0 140.327)" fill="#fff"/><rect width="3.815" height="3.815" transform="translate(16.587 140.327)" fill="#fff"/><rect width="3.815" height="3.815" transform="translate(33.174 140.327)" fill="#fff"/><rect width="3.815" height="3.815" transform="translate(49.761 140.327)" fill="#fff"/><rect width="3.815" height="3.815" transform="translate(66.348 140.327)" fill="#fff"/><rect width="3.815" height="3.815" transform="translate(82.935 140.327)" fill="#fff"/><rect width="3.815" height="3.815" transform="translate(99.522 140.327)" fill="#fff"/><rect width="3.815" height="3.815" transform="translate(116.11 140.327)" fill="#fff"/><rect width="3.815" height="3.815" transform="translate(132.697 140.327)" fill="#fff"/><rect width="3.815" height="3.815" transform="translate(149.284 140.327)" fill="#fff"/><rect width="3.815" height="3.815" transform="translate(165.871 140.327)" fill="#fff"/><rect width="3.815" height="3.815" transform="translate(182.458 140.327)" fill="#fff"/><rect width="3.815" height="3.815" transform="translate(199.045 140.327)" fill="#fff"/><rect width="3.815" height="3.815" transform="translate(215.632 140.327)" fill="#fff"/><rect width="3.815" height="3.815" transform="translate(232.219 140.327)" fill="#fff"/><rect width="3.815" height="3.815" transform="translate(248.806 140.327)" fill="#fff"/><rect width="3.815" height="3.815" transform="translate(265.393 140.327)" fill="#fff"/><rect width="3.815" height="3.815" transform="translate(0 155.918)" fill="#fff"/><rect width="3.815" height="3.815" transform="translate(16.587 155.918)" fill="#fff"/><rect width="3.815" height="3.815" transform="translate(33.174 155.918)" fill="#fff"/><rect width="3.815" height="3.815" transform="translate(49.761 155.918)" fill="#fff"/><rect width="3.815" height="3.815" transform="translate(66.348 155.918)" fill="#fff"/><rect width="3.815" height="3.815" transform="translate(82.935 155.918)" fill="#fff"/><rect width="3.815" height="3.815" transform="translate(99.522 155.918)" fill="#fff"/><rect width="3.815" height="3.815" transform="translate(116.11 155.918)" fill="#fff"/><rect width="3.815" height="3.815" transform="translate(132.697 155.918)" fill="#fff"/><rect width="3.815" height="3.815" transform="translate(149.284 155.918)" fill="#fff"/><rect width="3.815" height="3.815" transform="translate(165.871 155.918)" fill="#fff"/><rect width="3.815" height="3.815" transform="translate(182.458 155.918)" fill="#fff"/><rect width="3.815" height="3.815" transform="translate(199.045 155.918)" fill="#fff"/><rect width="3.815" height="3.815" transform="translate(215.632 155.918)" fill="#fff"/><rect width="3.815" height="3.815" transform="translate(232.219 155.918)" fill="#fff"/><rect width="3.815" height="3.815" transform="translate(248.806 155.918)" fill="#fff"/><rect width="3.815" height="3.815" transform="translate(265.393 155.918)" fill="#fff"/><rect width="3.815" height="3.815" transform="translate(0 171.51)" fill="#fff"/><rect width="3.815" height="3.815" transform="translate(16.587 171.51)" fill="#fff"/><rect width="3.815" height="3.815" transform="translate(33.174 171.51)" fill="#fff"/><rect width="3.815" height="3.815" transform="translate(49.761 171.51)" fill="#fff"/><rect width="3.815" height="3.815" transform="translate(66.348 171.51)" fill="#fff"/><rect width="3.815" height="3.815" transform="translate(82.935 171.51)" fill="#fff"/><rect width="3.815" height="3.815" transform="translate(99.522 171.51)" fill="#fff"/><rect width="3.815" height="3.815" transform="translate(116.11 171.51)" fill="#fff"/><rect width="3.815" height="3.815" transform="translate(132.697 171.51)" fill="#fff"/><rect width="3.815" height="3.815" transform="translate(149.284 171.51)" fill="#fff"/><rect width="3.815" height="3.815" transform="translate(165.871 171.51)" fill="#fff"/><rect width="3.815" height="3.815" transform="translate(182.458 171.51)" fill="#fff"/><rect width="3.815" height="3.815" transform="translate(199.045 171.51)" fill="#fff"/><rect width="3.815" height="3.815" transform="translate(215.632 171.51)" fill="#fff"/><rect width="3.815" height="3.815" transform="translate(232.219 171.51)" fill="#fff"/><rect width="3.815" height="3.815" transform="translate(248.806 171.51)" fill="#fff"/><rect width="3.815" height="3.815" transform="translate(265.393 171.51)" fill="#fff"/><rect width="3.815" height="3.815" transform="translate(0 187.102)" fill="#fff"/><rect width="3.815" height="3.815" transform="translate(16.587 187.102)" fill="#fff"/><rect width="3.815" height="3.815" transform="translate(33.174 187.102)" fill="#fff"/><rect width="3.815" height="3.815" transform="translate(49.761 187.102)" fill="#fff"/><rect width="3.815" height="3.815" transform="translate(66.348 187.102)" fill="#fff"/><rect width="3.815" height="3.815" transform="translate(82.935 187.102)" fill="#fff"/><rect width="3.815" height="3.815" transform="translate(99.522 187.102)" fill="#fff"/><rect width="3.815" height="3.815" transform="translate(116.11 187.102)" fill="#fff"/><rect width="3.815" height="3.815" transform="translate(132.697 187.102)" fill="#fff"/><rect width="3.815" height="3.815" transform="translate(149.284 187.102)" fill="#fff"/><rect width="3.815" height="3.815" transform="translate(165.871 187.102)" fill="#fff"/><rect width="3.815" height="3.815" transform="translate(182.458 187.102)" fill="#fff"/><rect width="3.815" height="3.815" transform="translate(199.045 187.102)" fill="#fff"/><rect width="3.815" height="3.815" transform="translate(215.632 187.102)" fill="#fff"/><rect width="3.815" height="3.815" transform="translate(232.219 187.102)" fill="#fff"/><rect width="3.815" height="3.815" transform="translate(248.806 187.102)" fill="#fff"/><rect width="3.815" height="3.815" transform="translate(265.393 187.102)" fill="#fff"/><rect width="3.815" height="3.815" transform="translate(0 202.694)" fill="#fff"/><rect width="3.815" height="3.815" transform="translate(16.587 202.694)" fill="#fff"/><rect width="3.815" height="3.815" transform="translate(33.174 202.694)" fill="#fff"/><rect width="3.815" height="3.815" transform="translate(49.761 202.694)" fill="#fff"/><rect width="3.815" height="3.815" transform="translate(66.348 202.694)" fill="#fff"/><rect width="3.815" height="3.815" transform="translate(82.935 202.694)" fill="#fff"/><rect width="3.815" height="3.815" transform="translate(99.522 202.694)" fill="#fff"/><rect width="3.815" height="3.815" transform="translate(116.11 202.694)" fill="#fff"/><rect width="3.815" height="3.815" transform="translate(132.697 202.694)" fill="#fff"/><rect width="3.815" height="3.815" transform="translate(149.284 202.694)" fill="#fff"/><rect width="3.815" height="3.815" transform="translate(165.871 202.694)" fill="#fff"/><rect width="3.815" height="3.815" transform="translate(182.458 202.694)" fill="#fff"/><rect width="3.815" height="3.815" transform="translate(199.045 202.694)" fill="#fff"/><rect width="3.815" height="3.815" transform="translate(215.632 202.694)" fill="#fff"/><rect width="3.815" height="3.815" transform="translate(232.219 202.694)" fill="#fff"/><rect width="3.815" height="3.815" transform="translate(248.806 202.694)" fill="#fff"/><rect width="3.815" height="3.815" transform="translate(265.393 202.694)" fill="#fff"/><rect width="3.815" height="3.815" transform="translate(0 218.286)" fill="#fff"/><rect width="3.815" height="3.815" transform="translate(16.587 218.286)" fill="#fff"/><rect width="3.815" height="3.815" transform="translate(33.174 218.286)" fill="#fff"/><rect width="3.815" height="3.815" transform="translate(49.761 218.286)" fill="#fff"/><rect width="3.815" height="3.815" transform="translate(66.348 218.286)" fill="#fff"/><rect width="3.815" height="3.815" transform="translate(82.935 218.286)" fill="#fff"/><rect width="3.815" height="3.815" transform="translate(99.522 218.286)" fill="#fff"/><rect width="3.815" height="3.815" transform="translate(116.11 218.286)" fill="#fff"/><rect width="3.815" height="3.815" transform="translate(132.697 218.286)" fill="#fff"/><rect width="3.815" height="3.815" transform="translate(149.284 218.286)" fill="#fff"/><rect width="3.815" height="3.815" transform="translate(165.871 218.286)" fill="#fff"/><rect width="3.815" height="3.815" transform="translate(182.458 218.286)" fill="#fff"/><rect width="3.815" height="3.815" transform="translate(199.045 218.286)" fill="#fff"/><rect width="3.815" height="3.815" transform="translate(215.632 218.286)" fill="#fff"/><rect width="3.815" height="3.815" transform="translate(232.219 218.286)" fill="#fff"/><rect width="3.815" height="3.815" transform="translate(248.806 218.286)" fill="#fff"/><rect width="3.815" height="3.815" transform="translate(265.393 218.286)" fill="#fff"/><rect width="3.815" height="3.815" transform="translate(0 233.878)" fill="#fff"/><rect width="3.815" height="3.815" transform="translate(16.587 233.878)" fill="#fff"/><rect width="3.815" height="3.815" transform="translate(33.174 233.878)" fill="#fff"/><rect width="3.815" height="3.815" transform="translate(49.761 233.878)" fill="#fff"/><rect width="3.815" height="3.815" transform="translate(66.348 233.878)" fill="#fff"/><rect width="3.815" height="3.815" transform="translate(82.935 233.878)" fill="#fff"/><rect width="3.815" height="3.815" transform="translate(99.522 233.878)" fill="#fff"/><rect width="3.815" height="3.815" transform="translate(116.11 233.878)" fill="#fff"/><rect width="3.815" height="3.815" transform="translate(132.697 233.878)" fill="#fff"/><rect width="3.815" height="3.815" transform="translate(149.284 233.878)" fill="#fff"/><rect width="3.815" height="3.815" transform="translate(165.871 233.878)" fill="#fff"/><rect width="3.815" height="3.815" transform="translate(182.458 233.878)" fill="#fff"/><rect width="3.815" height="3.815" transform="translate(199.045 233.878)" fill="#fff"/><rect width="3.815" height="3.815" transform="translate(215.632 233.878)" fill="#fff"/><rect width="3.815" height="3.815" transform="translate(232.219 233.878)" fill="#fff"/><rect width="3.815" height="3.815" transform="translate(248.806 233.878)" fill="#fff"/><rect width="3.815" height="3.815" transform="translate(265.393 233.878)" fill="#fff"/><rect width="3.815" height="3.815" transform="translate(0 249.47)" fill="#fff"/><rect width="3.815" height="3.815" transform="translate(16.587 249.47)" fill="#fff"/><rect width="3.815" height="3.815" transform="translate(33.174 249.47)" fill="#fff"/><rect width="3.815" height="3.815" transform="translate(49.761 249.47)" fill="#fff"/><rect width="3.815" height="3.815" transform="translate(66.348 249.47)" fill="#fff"/><rect width="3.815" height="3.815" transform="translate(82.935 249.47)" fill="#fff"/><rect width="3.815" height="3.815" transform="translate(99.522 249.47)" fill="#fff"/><rect width="3.815" height="3.815" transform="translate(116.11 249.47)" fill="#fff"/><rect width="3.815" height="3.815" transform="translate(132.697 249.47)" fill="#fff"/><rect width="3.815" height="3.815" transform="translate(149.284 249.47)" fill="#fff"/><rect width="3.815" height="3.815" transform="translate(165.871 249.47)" fill="#fff"/><rect width="3.815" height="3.815" transform="translate(182.458 249.47)" fill="#fff"/><rect width="3.815" height="3.815" transform="translate(199.045 249.47)" fill="#fff"/><rect width="3.815" height="3.815" transform="translate(215.632 249.47)" fill="#fff"/><rect width="3.815" height="3.815" transform="translate(232.219 249.47)" fill="#fff"/><rect width="3.815" height="3.815" transform="translate(248.806 249.47)" fill="#fff"/><rect width="3.815" height="3.815" transform="translate(265.393 249.47)" fill="#fff"/><rect width="3.815" height="3.815" transform="translate(0 265.061)" fill="#fff"/><rect width="3.815" height="3.815" transform="translate(16.587 265.061)" fill="#fff"/><rect width="3.815" height="3.815" transform="translate(33.174 265.061)" fill="#fff"/><rect width="3.815" height="3.815" transform="translate(49.761 265.061)" fill="#fff"/><rect width="3.815" height="3.815" transform="translate(66.348 265.061)" fill="#fff"/><rect width="3.815" height="3.815" transform="translate(82.935 265.061)" fill="#fff"/><rect width="3.815" height="3.815" transform="translate(99.522 265.061)" fill="#fff"/><rect width="3.815" height="3.815" transform="translate(116.11 265.061)" fill="#fff"/><rect width="3.815" height="3.815" transform="translate(132.697 265.061)" fill="#fff"/><rect width="3.815" height="3.815" transform="translate(149.284 265.061)" fill="#fff"/><rect width="3.815" height="3.815" transform="translate(165.871 265.061)" fill="#fff"/><rect width="3.815" height="3.815" transform="translate(182.458 265.061)" fill="#fff"/><rect width="3.815" height="3.815" transform="translate(199.045 265.061)" fill="#fff"/><rect width="3.815" height="3.815" transform="translate(215.632 265.061)" fill="#fff"/><rect width="3.815" height="3.815" transform="translate(232.219 265.061)" fill="#fff"/><rect width="3.815" height="3.815" transform="translate(248.806 265.061)" fill="#fff"/><rect width="3.815" height="3.815" transform="translate(265.393 265.061)" fill="#fff"/><rect width="3.815" height="3.815" transform="translate(0 280.653)" fill="#fff"/><rect width="3.815" height="3.815" transform="translate(16.587 280.653)" fill="#fff"/><rect width="3.815" height="3.815" transform="translate(33.174 280.653)" fill="#fff"/><rect width="3.815" height="3.815" transform="translate(49.761 280.653)" fill="#fff"/><rect width="3.815" height="3.815" transform="translate(66.348 280.653)" fill="#fff"/><rect width="3.815" height="3.815" transform="translate(82.935 280.653)" fill="#fff"/><rect width="3.815" height="3.815" transform="translate(99.522 280.653)" fill="#fff"/><rect width="3.815" height="3.815" transform="translate(116.11 280.653)" fill="#fff"/><rect width="3.815" height="3.815" transform="translate(132.697 280.653)" fill="#fff"/><rect width="3.815" height="3.815" transform="translate(149.284 280.653)" fill="#fff"/><rect width="3.815" height="3.815" transform="translate(165.871 280.653)" fill="#fff"/><rect width="3.815" height="3.815" transform="translate(182.458 280.653)" fill="#fff"/><rect width="3.815" height="3.815" transform="translate(199.045 280.653)" fill="#fff"/><rect width="3.815" height="3.815" transform="translate(215.632 280.653)" fill="#fff"/><rect width="3.815" height="3.815" transform="translate(232.219 280.653)" fill="#fff"/><rect width="3.815" height="3.815" transform="translate(248.806 280.653)" fill="#fff"/><rect width="3.815" height="3.815" transform="translate(265.393 280.653)" fill="#fff"/><rect width="3.815" height="3.815" transform="translate(0 296.245)" fill="#fff"/><rect width="3.815" height="3.815" transform="translate(16.587 296.245)" fill="#fff"/><rect width="3.815" height="3.815" transform="translate(33.174 296.245)" fill="#fff"/><rect width="3.815" height="3.815" transform="translate(49.761 296.245)" fill="#fff"/><rect width="3.815" height="3.815" transform="translate(66.348 296.245)" fill="#fff"/><rect width="3.815" height="3.815" transform="translate(82.935 296.245)" fill="#fff"/><rect width="3.815" height="3.815" transform="translate(99.522 296.245)" fill="#fff"/><rect width="3.815" height="3.815" transform="translate(116.11 296.245)" fill="#fff"/><rect width="3.815" height="3.815" transform="translate(132.697 296.245)" fill="#fff"/><rect width="3.815" height="3.815" transform="translate(149.284 296.245)" fill="#fff"/><rect width="3.815" height="3.815" transform="translate(165.871 296.245)" fill="#fff"/><rect width="3.815" height="3.815" transform="translate(182.458 296.245)" fill="#fff"/><rect width="3.815" height="3.815" transform="translate(199.045 296.245)" fill="#fff"/><rect width="3.815" height="3.815" transform="translate(215.632 296.245)" fill="#fff"/><rect width="3.815" height="3.815" transform="translate(232.219 296.245)" fill="#fff"/><rect width="3.815" height="3.815" transform="translate(248.806 296.245)" fill="#fff"/><rect width="3.815" height="3.815" transform="translate(265.393 296.245)" fill="#fff"/><rect width="3.815" height="3.815" transform="translate(0 311.837)" fill="#fff"/><rect width="3.815" height="3.815" transform="translate(16.587 311.837)" fill="#fff"/><rect width="3.815" height="3.815" transform="translate(33.174 311.837)" fill="#fff"/><rect width="3.815" height="3.815" transform="translate(49.761 311.837)" fill="#fff"/><rect width="3.815" height="3.815" transform="translate(66.348 311.837)" fill="#fff"/><rect width="3.815" height="3.815" transform="translate(82.935 311.837)" fill="#fff"/><rect width="3.815" height="3.815" transform="translate(99.522 311.837)" fill="#fff"/><rect width="3.815" height="3.815" transform="translate(116.11 311.837)" fill="#fff"/><rect width="3.815" height="3.815" transform="translate(132.697 311.837)" fill="#fff"/><rect width="3.815" height="3.815" transform="translate(149.284 311.837)" fill="#fff"/><rect width="3.815" height="3.815" transform="translate(165.871 311.837)" fill="#fff"/><rect width="3.815" height="3.815" transform="translate(182.458 311.837)" fill="#fff"/><rect width="3.815" height="3.815" transform="translate(199.045 311.837)" fill="#fff"/><rect width="3.815" height="3.815" transform="translate(215.632 311.837)" fill="#fff"/><rect width="3.815" height="3.815" transform="translate(232.219 311.837)" fill="#fff"/><rect width="3.815" height="3.815" transform="translate(248.806 311.837)" fill="#fff"/><rect width="3.815" height="3.815" transform="translate(265.393 311.837)" fill="#fff"/><rect width="3.815" height="3.815" transform="translate(0 327.429)" fill="#fff"/><rect width="3.815" height="3.815" transform="translate(16.587 327.429)" fill="#fff"/><rect width="3.815" height="3.815" transform="translate(33.174 327.429)" fill="#fff"/><rect width="3.815" height="3.815" transform="translate(49.761 327.429)" fill="#fff"/><rect width="3.815" height="3.815" transform="translate(66.348 327.429)" fill="#fff"/><rect width="3.815" height="3.815" transform="translate(82.935 327.429)" fill="#fff"/><rect width="3.815" height="3.815" transform="translate(99.522 327.429)" fill="#fff"/><rect width="3.815" height="3.815" transform="translate(116.11 327.429)" fill="#fff"/><rect width="3.815" height="3.815" transform="translate(132.697 327.429)" fill="#fff"/><rect width="3.815" height="3.815" transform="translate(149.284 327.429)" fill="#fff"/><rect width="3.815" height="3.815" transform="translate(165.871 327.429)" fill="#fff"/><rect width="3.815" height="3.815" transform="translate(182.458 327.429)" fill="#fff"/><rect width="3.815" height="3.815" transform="translate(199.045 327.429)" fill="#fff"/><rect width="3.815" height="3.815" transform="translate(215.632 327.429)" fill="#fff"/><rect width="3.815" height="3.815" transform="translate(232.219 327.429)" fill="#fff"/><rect width="3.815" height="3.815" transform="translate(248.806 327.429)" fill="#fff"/><rect width="3.815" height="3.815" transform="translate(265.393 327.429)" fill="#fff"/><rect width="3.815" height="3.815" transform="translate(0 343.021)" fill="#fff"/><rect width="3.815" height="3.815" transform="translate(16.587 343.021)" fill="#fff"/><rect width="3.815" height="3.815" transform="translate(33.174 343.021)" fill="#fff"/><rect width="3.815" height="3.815" transform="translate(49.761 343.021)" fill="#fff"/><rect width="3.815" height="3.815" transform="translate(66.348 343.021)" fill="#fff"/><rect width="3.815" height="3.815" transform="translate(82.935 343.021)" fill="#fff"/><rect width="3.815" height="3.815" transform="translate(99.522 343.021)" fill="#fff"/><rect width="3.815" height="3.815" transform="translate(116.11 343.021)" fill="#fff"/><rect width="3.815" height="3.815" transform="translate(132.697 343.021)" fill="#fff"/><rect width="3.815" height="3.815" transform="translate(149.284 343.021)" fill="#fff"/><rect width="3.815" height="3.815" transform="translate(165.871 343.021)" fill="#fff"/><rect width="3.815" height="3.815" transform="translate(182.458 343.021)" fill="#fff"/><rect width="3.815" height="3.815" transform="translate(199.045 343.021)" fill="#fff"/><rect width="3.815" height="3.815" transform="translate(215.632 343.021)" fill="#fff"/><rect width="3.815" height="3.815" transform="translate(232.219 343.021)" fill="#fff"/><rect width="3.815" height="3.815" transform="translate(248.806 343.021)" fill="#fff"/><rect width="3.815" height="3.815" transform="translate(265.393 343.021)" fill="#fff"/></g></g></g></svg>