<svg version="1.1" id="Layer_1" xmlns="http://www.w3.org/2000/svg" x="0" y="0" viewBox="0 0 33 33" xml:space="preserve"><style>.st0{fill:#fff}</style><path class="st0" d="M32.04 10.35c-.07-1.64-.34-2.77-.72-3.74a7.466 7.466 0 00-1.78-2.74 7.73 7.73 0 00-2.73-1.78c-.98-.38-2.1-.65-3.74-.72-1.65-.08-2.18-.1-6.37-.1s-4.72.02-6.36.09c-1.65.07-2.77.34-3.75.72-1.04.39-1.97.99-2.74 1.78-.78.78-1.39 1.71-1.78 2.74-.38.98-.65 2.1-.72 3.74-.08 1.65-.1 2.18-.1 6.37s.02 4.72.09 6.36c.07 1.64.34 2.77.72 3.74.39 1.04 1 1.97 1.78 2.74a7.73 7.73 0 002.73 1.78c.98.38 2.1.65 3.74.72 1.65.07 2.17.09 6.36.09s4.72-.02 6.36-.09c1.64-.07 2.77-.34 3.74-.72a7.92 7.92 0 004.52-4.52c.38-.98.65-2.1.72-3.74.07-1.65.09-2.17.09-6.36s.01-4.72-.06-6.36zm-2.78 12.6c-.07 1.51-.32 2.32-.53 2.86a5.153 5.153 0 01-2.93 2.93c-.54.21-1.36.46-2.86.53-1.63.07-2.12.09-6.23.09s-4.61-.02-6.23-.09c-1.51-.07-2.32-.32-2.86-.53-.67-.25-1.28-.64-1.77-1.15-.51-.5-.9-1.1-1.15-1.77-.21-.54-.46-1.36-.53-2.86-.07-1.63-.09-2.12-.09-6.23s.02-4.61.09-6.23c.07-1.51.32-2.32.53-2.86.25-.67.64-1.28 1.16-1.77.5-.51 1.1-.9 1.77-1.15.54-.21 1.36-.46 2.86-.53 1.63-.07 2.12-.09 6.23-.09 4.12 0 4.61.02 6.23.09 1.51.07 2.32.32 2.86.53.67.25 1.28.64 1.77 1.15.51.5.9 1.1 1.15 1.77.21.54.46 1.36.53 2.86.07 1.63.09 2.12.09 6.23s-.02 4.59-.09 6.22z"/><path class="st0" d="M16.69 8.78c-4.38 0-7.93 3.55-7.93 7.93s3.55 7.93 7.93 7.93 7.93-3.55 7.93-7.93-3.55-7.93-7.93-7.93zm0 13.07c-2.84 0-5.14-2.3-5.14-5.14s2.3-5.14 5.14-5.14 5.14 2.3 5.14 5.14c.01 2.84-2.3 5.14-5.14 5.14zM26.79 8.47c0 1.02-.83 1.85-1.85 1.85s-1.85-.83-1.85-1.85.83-1.85 1.85-1.85a1.84 1.84 0 011.85 1.85z"/></svg>