<svg version="1.1" id="Layer_1" xmlns="http://www.w3.org/2000/svg" x="0" y="0" viewBox="0 0 438.64 83.48" xml:space="preserve"><style>.st0{fill:#a0d262}.st1{fill:#15b3f0}</style><path class="st0" d="M16.99 6.59c8.73 0 15.42 1.59 20.07 4.77 4.65 3.18 6.98 8.15 6.98 14.91 0 3.53-.62 6.54-1.86 9.06-1.24 2.51-3.05 4.57-5.42 6.15-2.37 1.59-5.26 2.76-8.67 3.51s-7.31 1.13-11.7 1.13h-5.46v21.15H0V8.06c2.54-.58 5.36-.96 8.45-1.17 3.09-.2 5.94-.3 8.54-.3zm.78 9.45c-2.77 0-5.06.09-6.85.26v20.46h5.29c5.26 0 9.3-.74 12.14-2.21 2.83-1.47 4.25-4.26 4.25-8.37 0-1.96-.38-3.61-1.13-4.94a8.066 8.066 0 00-3.12-3.12c-1.33-.75-2.9-1.29-4.72-1.6-1.83-.32-3.78-.48-5.86-.48zM91.28 21.93c-4.67 17.22-10.1 32.83-16.27 46.81-1.16 2.6-2.34 4.82-3.56 6.68-1.22 1.85-2.58 3.38-4.08 4.59a14.54 14.54 0 01-5.03 2.64c-1.85.55-3.99.82-6.42.82-1.62 0-3.23-.17-4.82-.52-1.59-.35-2.79-.72-3.6-1.13l1.91-8.41c2.09.81 4.15 1.21 6.18 1.21 2.73 0 4.86-.65 6.4-1.95 1.54-1.3 2.89-3.31 4.05-6.02-3.31-6.36-6.49-13.29-9.53-20.81-3.05-7.51-5.76-15.49-8.14-23.93h11.18c.58 2.43 1.29 5.06 2.13 7.89.84 2.83 1.76 5.71 2.74 8.63.99 2.92 2.03 5.82 3.13 8.71 1.1 2.89 2.21 5.58 3.31 8.06 1.84-5.14 3.57-10.62 5.18-16.43 1.61-5.81 3.08-11.43 4.4-16.86h10.84zM98.74 9.97l10.49-1.73v13.7h16.12v8.76h-16.12v18.46c0 3.64.58 6.24 1.73 7.8 1.16 1.56 3.12 2.34 5.9 2.34 1.91 0 3.6-.2 5.07-.61 1.47-.4 2.64-.78 3.51-1.13l1.73 8.32c-1.21.52-2.8 1.06-4.77 1.6-1.97.55-4.28.82-6.94.82-3.24 0-5.94-.43-8.11-1.3-2.17-.87-3.89-2.12-5.16-3.77s-2.17-3.64-2.69-5.98c-.52-2.34-.78-5.01-.78-8.02V9.97zM135.49 67.27V1.73L145.98 0v22.45c1.16-.4 2.5-.75 4.03-1.04 1.53-.29 3.05-.43 4.55-.43 3.64 0 6.66.51 9.06 1.52 2.4 1.01 4.32 2.43 5.76 4.25 1.44 1.82 2.47 4 3.08 6.55.61 2.54.91 5.37.91 8.5v25.49h-10.49V43.43c0-2.43-.16-4.49-.48-6.2-.32-1.7-.84-3.09-1.56-4.16a6.24 6.24 0 00-2.9-2.34c-1.21-.49-2.72-.74-4.51-.74-1.39 0-2.8.15-4.25.43-1.45.29-2.51.55-3.21.78v36.06h-10.48zM226.95 44.56c0 3.58-.52 6.85-1.56 9.8-1.04 2.95-2.51 5.46-4.42 7.54s-4.2 3.7-6.89 4.85c-2.69 1.16-5.65 1.73-8.89 1.73s-6.19-.58-8.84-1.73c-2.66-1.16-4.94-2.77-6.85-4.85s-3.4-4.59-4.46-7.54c-1.07-2.95-1.6-6.21-1.6-9.8 0-3.58.53-6.83 1.6-9.75s2.57-5.42 4.51-7.5 4.23-3.68 6.89-4.81c2.66-1.13 5.58-1.69 8.76-1.69 3.18 0 6.11.56 8.8 1.69 2.69 1.13 4.98 2.73 6.89 4.81s3.39 4.58 4.46 7.5c1.07 2.92 1.6 6.17 1.6 9.75zm-10.75 0c0-4.51-.97-8.08-2.9-10.71-1.94-2.63-4.64-3.94-8.11-3.94s-6.17 1.31-8.11 3.94c-1.94 2.63-2.9 6.2-2.9 10.71 0 4.57.97 8.18 2.9 10.84 1.94 2.66 4.64 3.99 8.11 3.99s6.17-1.33 8.11-3.99c1.93-2.66 2.9-6.28 2.9-10.84zM237.79 23.41c2.02-.58 4.65-1.13 7.89-1.65 3.24-.52 6.82-.78 10.75-.78 3.7 0 6.79.51 9.28 1.52 2.48 1.01 4.46 2.43 5.94 4.25 1.47 1.82 2.51 4.02 3.12 6.59.61 2.57.91 5.39.91 8.45v25.49h-10.49V43.43c0-2.43-.16-4.49-.48-6.2-.32-1.7-.84-3.09-1.56-4.16-.72-1.07-1.71-1.85-2.95-2.34-1.24-.49-2.76-.74-4.55-.74-1.33 0-2.72.09-4.16.26-1.45.17-2.51.32-3.21.43v36.58h-10.49V23.41z"/><path class="st1" d="M326.21 6.59c8.73 0 15.42 1.59 20.07 4.77 4.65 3.18 6.98 8.15 6.98 14.91 0 3.53-.62 6.54-1.86 9.06-1.24 2.51-3.05 4.57-5.42 6.15-2.37 1.59-5.26 2.76-8.67 3.51s-7.31 1.13-11.7 1.13h-5.46v21.15h-10.92V8.06c2.54-.58 5.36-.97 8.45-1.17 3.08-.2 5.93-.3 8.53-.3zm.78 9.45c-2.77 0-5.06.09-6.85.26v20.46h5.29c5.26 0 9.3-.74 12.14-2.21 2.83-1.47 4.25-4.26 4.25-8.37 0-1.96-.38-3.61-1.13-4.94a8.066 8.066 0 00-3.12-3.12c-1.33-.75-2.9-1.29-4.72-1.6-1.83-.32-3.78-.48-5.86-.48zM388.54 31.38c-.87-.29-2.07-.59-3.6-.91-1.53-.32-3.31-.48-5.33-.48-1.16 0-2.38.12-3.68.35-1.3.23-2.21.43-2.73.61v36.32h-10.5V24.1c2.02-.75 4.55-1.46 7.59-2.12 3.03-.66 6.4-1 10.1-1 .69 0 1.5.04 2.43.13a42.719 42.719 0 015.46.87c.87.2 1.56.39 2.08.56l-1.82 8.84zM438.64 44.56c0 3.58-.52 6.85-1.56 9.8-1.04 2.95-2.51 5.46-4.42 7.54s-4.21 3.7-6.89 4.85c-2.69 1.16-5.65 1.73-8.89 1.73s-6.18-.58-8.84-1.73c-2.66-1.16-4.94-2.77-6.85-4.85s-3.4-4.59-4.46-7.54c-1.07-2.95-1.6-6.21-1.6-9.8 0-3.58.53-6.83 1.6-9.75s2.57-5.42 4.51-7.5 4.23-3.68 6.89-4.81c2.66-1.13 5.58-1.69 8.75-1.69 3.18 0 6.11.56 8.8 1.69s4.98 2.73 6.89 4.81 3.39 4.58 4.46 7.5c1.08 2.92 1.61 6.17 1.61 9.75zm-10.75 0c0-4.51-.97-8.08-2.9-10.71-1.94-2.63-4.64-3.94-8.11-3.94-3.47 0-6.17 1.31-8.11 3.94-1.94 2.63-2.9 6.2-2.9 10.71 0 4.57.97 8.18 2.9 10.84 1.94 2.66 4.64 3.99 8.11 3.99 3.47 0 6.17-1.33 8.11-3.99 1.94-2.66 2.9-6.28 2.9-10.84z"/></svg>