<svg version="1.1" id="Layer_1" xmlns="http://www.w3.org/2000/svg" x="0" y="0" viewBox="0 0 167.9 49.67" xml:space="preserve"><style>.st0{fill:#82d700}.st1{fill:#00b6ea}.st2{fill:#82d700;stroke:#82d700;stroke-width:.2;stroke-miterlimit:10}</style><path class="st0" d="M3.94 23.83v5.71H0V13.26h6.38c1.93 0 3.41.48 4.42 1.44 1.01.96 1.52 2.25 1.52 3.88 0 1.01-.23 1.92-.68 2.71-.45.79-1.12 1.41-2.02 1.87-.89.45-1.97.68-3.25.68H3.94zm4.38-5.25c0-1.43-.79-2.14-2.37-2.14h-2v4.24h2c1.57 0 2.37-.7 2.37-2.1zM21.24 29.55l-3.52-6.15h-.9v6.15h-3.94V13.26h6.73c1.29 0 2.38.22 3.27.67.89.45 1.56 1.06 2 1.83.45.78.67 1.66.67 2.66 0 1.18-.33 2.19-.98 3.02-.65.83-1.6 1.4-2.84 1.71l3.87 6.4h-4.36zm-4.43-8.85h2.44c.78 0 1.36-.17 1.73-.52.37-.35.55-.86.55-1.53 0-.65-.19-1.15-.57-1.52-.38-.37-.95-.55-1.72-.55H16.8v4.12zM38.06 14.08c1.25.71 2.24 1.7 2.96 2.97.72 1.27 1.08 2.7 1.08 4.29s-.36 3.03-1.09 4.31c-.73 1.27-1.72 2.27-2.97 2.98-1.25.71-2.64 1.07-4.16 1.07s-2.91-.36-4.16-1.07c-1.25-.71-2.24-1.71-2.97-2.98s-1.09-2.71-1.09-4.31.36-3.03 1.09-4.29a7.843 7.843 0 012.97-2.97c1.25-.71 2.64-1.07 4.16-1.07 1.54 0 2.93.36 4.18 1.07zm-7.25 3.84c-.76.84-1.14 1.98-1.14 3.42 0 1.43.38 2.56 1.14 3.41.76.84 1.78 1.27 3.08 1.27 1.27 0 2.3-.42 3.06-1.27.77-.85 1.15-1.98 1.15-3.41s-.38-2.56-1.14-3.41c-.76-.85-1.78-1.27-3.07-1.27-1.3.01-2.32.43-3.08 1.26zM55.6 14.6c1.32 1 2.14 2.35 2.46 4.05H53.9c-.28-.58-.7-1.05-1.27-1.39s-1.25-.52-2.05-.52c-1.24 0-2.24.42-2.99 1.25-.75.84-1.13 1.97-1.13 3.4 0 1.55.4 2.74 1.19 3.57.79.83 1.91 1.24 3.37 1.24.94 0 1.76-.26 2.47-.77.71-.51 1.21-1.25 1.5-2.2h-4.98V20.4h8.27v3.89c-.31.95-.8 1.84-1.47 2.65-.68.82-1.54 1.48-2.59 1.98-1.05.51-2.25.76-3.6.76-1.64 0-3.08-.35-4.31-1.05a7.12 7.12 0 01-2.84-2.94c-.67-1.26-1-2.7-1-4.31 0-1.61.33-3.05 1-4.31s1.61-2.24 2.83-2.94c1.22-.7 2.64-1.05 4.27-1.05 2.03.02 3.71.52 5.03 1.52zM67.47 29.55l-3.52-6.15h-.9v6.15h-3.94V13.26h6.73c1.29 0 2.38.22 3.27.67.89.45 1.56 1.06 2 1.83.45.78.67 1.66.67 2.66 0 1.18-.33 2.19-.98 3.02-.65.83-1.6 1.4-2.84 1.71l3.87 6.4h-4.36zm-4.43-8.85h2.44c.78 0 1.36-.17 1.73-.52.37-.35.55-.86.55-1.53 0-.65-.19-1.15-.57-1.52-.38-.37-.95-.55-1.72-.55h-2.44v4.12z"/><path class="st0" d="M82.46 26.58h-6.1l-1.01 2.97H71.2l5.97-16.17h4.54l5.97 16.17h-4.19l-1.03-2.97zm-1.01-3l-2.03-5.99-2.05 5.99h4.08zM106.12 13.38v16.17h-3.94V19.43l-3.5 10.11h-3.41L91.74 19.4v10.14H87.8V13.38h4.81l4.4 11.26 4.31-11.26h4.8zM117.54 26.58h-6.1l-1.01 2.97h-4.15l5.97-16.17h4.54l5.97 16.17h-4.19l-1.03-2.97zm-1.01-3l-2.03-5.99-2.05 5.99h4.08zM136.51 25.62c-.68 1.24-1.67 2.2-2.95 2.89-1.28.69-2.79 1.04-4.53 1.04h-6.15V13.26h6.15c1.75 0 3.26.34 4.54 1.01 1.27.68 2.25 1.63 2.94 2.86.68 1.23 1.03 2.64 1.03 4.24s-.34 3.01-1.03 4.25zm-4.24-.82c.85-.81 1.28-1.96 1.28-3.43 0-1.48-.43-2.62-1.28-3.43-.85-.82-2.05-1.22-3.58-1.22h-1.87v9.31h1.87c1.54-.01 2.73-.41 3.58-1.23zM150.31 14.08c1.25.71 2.24 1.7 2.96 2.97.72 1.27 1.08 2.7 1.08 4.29s-.37 3.03-1.09 4.31c-.73 1.27-1.72 2.27-2.97 2.98-1.25.71-2.64 1.07-4.16 1.07s-2.91-.36-4.16-1.07c-1.25-.71-2.24-1.71-2.97-2.98s-1.09-2.71-1.09-4.31.36-3.03 1.09-4.29a7.843 7.843 0 012.97-2.97c1.25-.71 2.64-1.07 4.16-1.07 1.53 0 2.93.36 4.18 1.07zm-7.26 3.84c-.76.84-1.14 1.98-1.14 3.42 0 1.43.38 2.56 1.14 3.41.76.84 1.79 1.27 3.08 1.27 1.27 0 2.29-.42 3.06-1.27.77-.85 1.15-1.98 1.15-3.41s-.38-2.56-1.14-3.41c-.76-.85-1.78-1.27-3.07-1.27s-2.32.43-3.08 1.26zM163.54 29.55l-3.53-6.15h-.9v6.15h-3.94V13.26h6.73c1.29 0 2.38.22 3.27.67.89.45 1.56 1.06 2 1.83.45.78.67 1.66.67 2.66 0 1.18-.33 2.19-.98 3.02-.65.83-1.6 1.4-2.84 1.71l3.87 6.4h-4.35zm-4.42-8.85h2.44c.78 0 1.36-.17 1.73-.52.37-.35.55-.86.55-1.53 0-.65-.19-1.15-.56-1.52-.38-.37-.95-.55-1.72-.55h-2.44v4.12z"/><path class="st1" d="M4.5 42.96v6.52H0v-18.6h7.29c2.21 0 3.89.55 5.05 1.64s1.74 2.57 1.74 4.43c0 1.16-.26 2.19-.78 3.09-.52.9-1.28 1.61-2.3 2.13-1.02.52-2.25.78-3.71.78H4.5zm5-6c0-1.63-.9-2.45-2.71-2.45H4.5v4.84h2.29c1.81.01 2.71-.79 2.71-2.39zM24.26 49.49l-4.03-7.03H19.2v7.03h-4.5v-18.6h7.68c1.47 0 2.72.25 3.74.76s1.78 1.21 2.29 2.09c.51.89.76 1.9.76 3.04 0 1.35-.37 2.5-1.12 3.45-.75.95-1.83 1.6-3.25 1.95l4.42 7.31h-4.96zm-5.05-10.11H22c.89 0 1.55-.2 1.97-.59.42-.39.63-.98.63-1.75 0-.74-.22-1.32-.65-1.74-.43-.42-1.08-.63-1.96-.63H19.2v4.71zM43.48 31.82c1.43.82 2.56 1.95 3.38 3.4.82 1.45 1.24 3.08 1.24 4.91s-.42 3.46-1.25 4.92a8.91 8.91 0 01-3.4 3.41c-1.43.82-3.01 1.22-4.75 1.22s-3.32-.41-4.75-1.22a9.05 9.05 0 01-3.4-3.41c-.83-1.46-1.25-3.09-1.25-4.92 0-1.82.42-3.46 1.25-4.91a8.954 8.954 0 013.4-3.4c1.43-.82 3.01-1.22 4.75-1.22 1.76 0 3.35.4 4.78 1.22zm-8.29 4.39c-.87.96-1.3 2.26-1.3 3.91 0 1.63.43 2.93 1.3 3.9.87.97 2.04 1.45 3.51 1.45 1.46 0 2.62-.48 3.5-1.45.88-.96 1.32-2.26 1.32-3.9 0-1.63-.43-2.93-1.3-3.89-.87-.97-2.04-1.45-3.51-1.45-1.48 0-2.65.48-3.52 1.43zM61.18 30.88v3.58h-7.63v4.08h5.9v3.42h-5.9v7.52h-4.5v-18.6h12.13zM66.41 30.88v18.6h-4.5v-18.6h4.5zM80.55 46.96c-.5.83-1.24 1.48-2.21 1.97s-2.15.74-3.54.74c-2.09 0-3.81-.51-5.16-1.53s-2.09-2.44-2.21-4.26h4.79c.07.7.32 1.25.75 1.66.43.4.98.6 1.64.6.58 0 1.04-.16 1.37-.47.33-.31.5-.74.5-1.26 0-.47-.15-.87-.46-1.18-.31-.31-.69-.57-1.14-.78-.46-.2-1.09-.44-1.89-.72-1.18-.4-2.14-.79-2.88-1.17-.75-.38-1.39-.94-1.92-1.68-.54-.75-.8-1.72-.8-2.91 0-1.1.28-2.06.84-2.87.56-.81 1.34-1.42 2.33-1.85.99-.43 2.13-.64 3.41-.64 2.07 0 3.71.49 4.93 1.47 1.22.98 1.91 2.33 2.07 4.05H76.1c-.09-.61-.31-1.1-.67-1.46-.36-.36-.85-.54-1.46-.54-.53 0-.95.14-1.28.42-.32.28-.49.69-.49 1.24 0 .44.14.81.43 1.12.29.31.65.56 1.09.75.44.19 1.07.44 1.89.74 1.19.4 2.17.8 2.92 1.2.75.39 1.4.97 1.95 1.72.54.76.82 1.74.82 2.95 0 .97-.25 1.87-.75 2.69zM94.84 46.96c-.5.83-1.24 1.48-2.21 1.97s-2.15.74-3.54.74c-2.09 0-3.81-.51-5.16-1.53s-2.09-2.44-2.21-4.26h4.79c.07.7.32 1.25.75 1.66.43.4.98.6 1.64.6.58 0 1.04-.16 1.37-.47.33-.31.5-.74.5-1.26 0-.47-.15-.87-.46-1.18-.31-.31-.69-.57-1.14-.78-.46-.2-1.09-.44-1.89-.72-1.18-.4-2.14-.79-2.88-1.17-.75-.38-1.39-.94-1.92-1.68-.54-.75-.8-1.72-.8-2.91 0-1.1.28-2.06.84-2.87.56-.81 1.34-1.42 2.33-1.85.99-.43 2.13-.64 3.41-.64 2.07 0 3.71.49 4.93 1.47 1.22.98 1.91 2.33 2.07 4.05h-4.87c-.09-.61-.31-1.1-.67-1.46-.36-.36-.85-.54-1.46-.54-.53 0-.95.14-1.28.42-.32.28-.49.69-.49 1.24 0 .44.14.81.43 1.12.29.31.65.56 1.09.75.44.19 1.07.44 1.89.74 1.19.4 2.17.8 2.92 1.2.75.39 1.4.97 1.95 1.72.54.76.82 1.74.82 2.95 0 .97-.25 1.87-.75 2.69zM101.01 30.88v18.6h-4.5v-18.6h4.5zM116.15 31.82c1.43.82 2.56 1.95 3.38 3.4.82 1.45 1.24 3.08 1.24 4.91s-.42 3.46-1.25 4.92a8.91 8.91 0 01-3.4 3.41c-1.43.82-3.01 1.22-4.75 1.22s-3.32-.41-4.75-1.22c-1.43-.82-2.56-1.95-3.4-3.41s-1.25-3.09-1.25-4.92c0-1.82.42-3.46 1.25-4.91a8.954 8.954 0 013.4-3.4c1.43-.82 3.01-1.22 4.75-1.22 1.76 0 3.36.4 4.78 1.22zm-8.28 4.39c-.87.96-1.3 2.26-1.3 3.91 0 1.63.43 2.93 1.3 3.9.87.97 2.04 1.45 3.51 1.45 1.46 0 2.62-.48 3.5-1.45.88-.96 1.32-2.26 1.32-3.9 0-1.63-.43-2.93-1.3-3.89-.87-.97-2.04-1.45-3.51-1.45-1.49 0-2.66.48-3.52 1.43zM138.24 49.49h-4.5l-7.53-11.42v11.42h-4.5v-18.6h4.5l7.53 11.53V30.88h4.5v18.61zM151.29 46.09h-6.97l-1.16 3.39h-4.74l6.82-18.47h5.18l6.81 18.47h-4.79l-1.15-3.39zm-1.15-3.42l-2.31-6.84-2.34 6.84h4.65zM161.9 46.04h6v3.45h-10.5v-18.6h4.5v15.15z"/><g><path class="st2" d="M3.98 5.98c-1.09-.32-1.88-.7-2.38-1.16C1.11 4.36.86 3.8.86 3.13c0-.76.3-1.39.91-1.89S3.17.5 4.14.5c.66 0 1.25.13 1.77.38s.92.61 1.21 1.06.43.94.43 1.48H6.26c0-.59-.19-1.05-.56-1.38-.37-.33-.89-.5-1.57-.5-.63 0-1.12.14-1.47.42-.34.27-.52.65-.52 1.14 0 .39.17.73.5 1 .33.27.9.52 1.7.75.8.23 1.43.47 1.88.75.45.27.79.59 1.01.95.22.36.33.79.33 1.28 0 .78-.3 1.41-.91 1.88s-1.42.71-2.45.71c-.66 0-1.28-.13-1.86-.38-.57-.25-1.02-.6-1.33-1.04S.54 8.06.54 7.5h1.28c0 .58.22 1.04.65 1.38.44.32 1.01.49 1.73.49.67 0 1.19-.14 1.54-.41.36-.27.54-.65.54-1.12s-.16-.84-.49-1.1c-.33-.25-.93-.51-1.81-.76zM11.27 10.41c-.97 0-1.76-.32-2.37-.96-.61-.63-.92-1.49-.92-2.56v-.22c0-.71.14-1.35.41-1.91s.65-1 1.14-1.31c.49-.32 1.02-.47 1.59-.47.93 0 1.66.31 2.17.92.52.61.78 1.49.78 2.64v.51H9.21c.02.71.22 1.28.62 1.71.4.44.9.65 1.51.65.43 0 .8-.09 1.1-.27s.56-.41.79-.7l.75.58c-.61.93-1.51 1.39-2.71 1.39zm-.15-6.43c-.49 0-.91.18-1.25.54-.33.36-.54.87-.62 1.52h3.59v-.09c-.04-.62-.2-1.11-.5-1.45-.3-.35-.71-.52-1.22-.52zM15.93 3.11l.03.8c.53-.62 1.23-.93 2.13-.93 1 0 1.69.38 2.05 1.15.24-.34.55-.62.93-.84.38-.21.83-.32 1.36-.32 1.57 0 2.37.83 2.4 2.5v4.8H23.6V5.55c0-.51-.12-.9-.35-1.15-.23-.25-.63-.38-1.18-.38-.46 0-.83.14-1.13.41-.3.27-.47.64-.52 1.1v4.76h-1.23v-4.7c0-1.04-.51-1.56-1.53-1.56-.8 0-1.35.34-1.65 1.03v5.24h-1.23V3.11h1.15zM30.4 10.28c-.07-.14-.13-.39-.17-.76-.57.59-1.25.89-2.04.89-.71 0-1.29-.2-1.74-.6-.45-.4-.68-.91-.68-1.52 0-.75.28-1.33.85-1.74s1.37-.62 2.4-.62h1.19v-.56c0-.43-.13-.77-.38-1.02-.26-.25-.63-.38-1.13-.38-.44 0-.8.11-1.1.33-.3.22-.44.49-.44.8h-1.23c0-.36.13-.7.38-1.04.25-.33.6-.6 1.03-.79.44-.19.91-.29 1.43-.29.83 0 1.47.21 1.94.62s.71.98.73 1.71v3.3c0 .66.08 1.18.25 1.57v.11H30.4zm-2.04-.94c.38 0 .75-.1 1.09-.3s.59-.46.75-.78V6.8h-.96c-1.5 0-2.25.44-2.25 1.32 0 .38.13.68.38.9.26.22.59.32.99.32zM33.81 3.11l.04.9c.55-.69 1.26-1.03 2.15-1.03 1.52 0 2.28.85 2.29 2.56v4.74h-1.23V5.53c0-.52-.12-.9-.35-1.15-.23-.25-.59-.37-1.08-.37-.4 0-.75.11-1.05.32-.3.21-.53.49-.7.84v5.11h-1.23V3.11h1.16zM43.86 10.28c-.07-.14-.13-.39-.17-.76-.57.59-1.25.89-2.04.89-.71 0-1.29-.2-1.74-.6-.45-.4-.68-.91-.68-1.52 0-.75.28-1.33.85-1.74s1.37-.62 2.4-.62h1.19v-.56c0-.43-.13-.77-.38-1.02-.26-.25-.63-.38-1.13-.38-.44 0-.8.11-1.1.33-.3.22-.44.49-.44.8h-1.23c0-.36.13-.7.38-1.04.25-.33.6-.6 1.03-.79.44-.19.91-.29 1.43-.29.83 0 1.47.21 1.94.62.47.41.71.98.73 1.71v3.3c0 .66.08 1.18.25 1.57v.11h-1.29zm-2.04-.94c.38 0 .75-.1 1.09-.3s.59-.46.75-.78V6.8h-.96c-1.5 0-2.25.44-2.25 1.32 0 .38.13.68.38.9.26.22.59.32.99.32zM48.46 6.63c0-1.1.26-1.98.78-2.65s1.2-1 2.05-1c.84 0 1.5.29 1.99.86V.1h1.23v10.18h-1.13l-.06-.77c-.49.6-1.17.9-2.05.9-.83 0-1.51-.34-2.03-1.02-.52-.68-.79-1.57-.79-2.66v-.1zm1.23.14c0 .81.17 1.45.5 1.91.34.46.8.69 1.39.69.78 0 1.35-.35 1.7-1.05V5.03c-.37-.68-.93-1.01-1.69-1.01-.6 0-1.07.23-1.4.7-.33.46-.5 1.14-.5 2.05zM55.38 6.63c0-.7.14-1.33.41-1.9.28-.56.66-.99 1.15-1.3s1.05-.46 1.69-.46c.98 0 1.77.34 2.37 1.01.6.68.9 1.58.9 2.7v.09c0 .7-.13 1.32-.4 1.88-.27.55-.65.99-1.15 1.3-.5.31-1.07.46-1.71.46-.97 0-1.76-.34-2.36-1.01-.6-.68-.9-1.57-.9-2.68v-.09zm1.24.14c0 .8.18 1.43.55 1.92.37.48.86.72 1.48.72s1.12-.24 1.48-.73c.37-.49.55-1.17.55-2.05 0-.79-.19-1.42-.56-1.91-.37-.49-.87-.73-1.49-.73-.61 0-1.09.24-1.46.72s-.55 1.17-.55 2.06z"/></g></svg>