<svg xmlns="http://www.w3.org/2000/svg" viewBox="0 0 33 33"><path d="M31.53 7.18c-1.12.49-2.31.82-3.55.97a6.104 6.104 0 002.71-3.41c-1.19.71-2.51 1.21-3.91 1.49a6.184 6.184 0 00-4.5-1.95c-3.41 0-6.16 2.77-6.16 6.16 0 .49.04.96.14 1.41-5.12-.25-9.65-2.7-12.7-6.44a6.25 6.25 0 00-.84 3.12c0 2.13 1.1 4.03 2.74 5.12a6.11 6.11 0 01-2.78-.76v.07c0 2.99 2.14 5.48 4.94 6.05-.5.14-1.05.2-1.62.2-.39 0-.79-.02-1.17-.11.8 2.44 3.06 4.23 5.76 4.29-2.1 1.64-4.76 2.63-7.64 2.63-.51 0-.99-.02-1.47-.08 2.73 1.76 5.96 2.76 9.45 2.76 11.34 0 17.54-9.39 17.54-17.53 0-.27-.01-.54-.02-.8 1.21-.86 2.24-1.94 3.08-3.19z" fill="#fff"/></svg>