<svg version="1.1" id="Layer_1" xmlns="http://www.w3.org/2000/svg" x="0" y="0" viewBox="0 0 24.7 20" xml:space="preserve"><style>.st0{fill:#FFF}</style><path class="st0" d="M16.47 4.71H14.7l-1.24-3.2A2.372 2.372 0 0011.26 0H3.53v2.35h7.73l1.83 4.71h3.38c.65 0 1.18.53 1.18 1.18v8.24c0 .65-.53 1.18-1.18 1.18H3.53c-.65 0-1.18-.53-1.18-1.18V8.24c0-.65.53-1.18 1.18-1.18h5.88V4.71H3.53A3.53 3.53 0 000 8.24v8.24C0 18.42 1.58 20 3.53 20h12.94A3.53 3.53 0 0020 16.47V8.24a3.53 3.53 0 00-3.53-3.53z"/><path class="st0" d="M4.71 12.94H15.3v2.35H4.71zM24.61 8.96c-.25-.6-.93-.89-1.54-.64l-5.43 2.23v4.71l5.42 2.28a1.182 1.182 0 001.64-1.09V9.41c0-.15-.03-.3-.09-.45zm-2.26 5.73L20 13.7v-1.57l2.35-.96v3.52z"/></svg>