<svg xmlns="http://www.w3.org/2000/svg" width="22" height="22" viewBox="0 0 22 22"><rect width="22" height="22" fill="none"/><g transform="translate(-1 -1)" opacity="0.5"><path d="M9.715,12a1.943,1.943,0,0,0,2-2,1.943,1.943,0,0,0-2-2,1.943,1.943,0,0,0-2,2A1.943,1.943,0,0,0,9.715,12Z" fill="#626262"/><path d="M20,4H4A1.943,1.943,0,0,0,2,5.875v12.25A1.943,1.943,0,0,0,4,20H20a1.943,1.943,0,0,0,2-1.875V5.875A1.943,1.943,0,0,0,20,4Zm0,14L4,17.989V6l16,.011Z" fill="#626262"/><path d="M14,9h4v2H14Zm1,4h3v2H15Zm-1.57,2.536c0-1.374-1.676-2.786-3.715-2.786S6,14.162,6,15.536V16h7.43Z" fill="#626262"/></g></svg>