<svg xmlns="http://www.w3.org/2000/svg" width="22" height="22" viewBox="0 0 22 22"><rect width="22" height="22" fill="none"/><g transform="translate(-1 -1)" opacity="0.5"><path d="M16.585,20l2.006-2.005L16,15.408,14.712,16.7a.991.991,0,0,1-.912.271A10.158,10.158,0,0,1,9.3,14.7a10.158,10.158,0,0,1-2.271-4.5A1,1,0,0,1,7.3,9.287L8.591,7.994,6,5.408,4,7.413a13.242,13.242,0,0,0,3.712,8.874A13.239,13.239,0,0,0,16.585,20Z" fill="rgba(0,0,0,0)"/><path d="M16.566,22h.028A1.976,1.976,0,0,0,18,21.413L20.711,18.7a1,1,0,0,0,0-1.414l-4-4a1,1,0,0,0-1.414,0L13.7,14.881a7.489,7.489,0,0,1-2.992-1.594A7.489,7.489,0,0,1,9.117,10.3L10.711,8.7a1,1,0,0,0,0-1.414l-4-4a1.03,1.03,0,0,0-1.414,0L2.586,6A2,2,0,0,0,2,7.434,15.3,15.3,0,0,0,6.3,17.7,15.3,15.3,0,0,0,16.566,22ZM6.005,5.408,8.591,7.994,7.3,9.287a1,1,0,0,0-.271.912A10.158,10.158,0,0,0,9.3,14.7a10.158,10.158,0,0,0,4.5,2.271.994.994,0,0,0,.912-.271L16,15.408l2.586,2.586L16.585,20a13.239,13.239,0,0,1-8.873-3.712A13.242,13.242,0,0,1,4,7.413ZM20,11h2a8.807,8.807,0,0,0-9.01-9V4A6.774,6.774,0,0,1,20,11Z" fill="#626262"/><path d="M13,8c2.1,0,3,.9,3,3h2c0-3.225-1.775-5-5-5V8Z" fill="#626262"/></g></svg>